<?xml version="1.0" encoding="UTF-8"?><svg id="_图层_1" xmlns="http://www.w3.org/2000/svg" viewBox="0 0 554.5 628.55"><path d="M85.45,39.97c8.75,10.79,18.65,21.97,32.82,25.16,7.53,1.69,15.41,1.13,22.28-2.57,6.02-3.25,10.51-8.71,15.56-13.2,1.18-1.05,2.39-2.08,3.61-3.08,.57-.47,1.15-.93,1.73-1.39,1.11-.88,.2-.16-.02,.01,.42-.32,.84-.64,1.26-.95,2.54-1.88,5.14-3.66,7.81-5.35,5.44-3.43,11.14-6.46,17.01-9.1,.68-.3,1.35-.6,2.03-.9,.2-.09,1.45-.61,.57-.24-.82,.34,.17-.07,.28-.11,1.57-.64,3.15-1.26,4.74-1.85,2.99-1.11,6.01-2.14,9.06-3.08,6.22-1.91,12.54-3.47,18.93-4.71,3.14-.61,6.29-1.14,9.46-1.59,.24-.03,1.58-.23,.58-.09-.93,.13,.13-.02,.27-.03,.84-.11,1.69-.21,2.53-.31,1.77-.21,3.55-.39,5.32-.55,7.61-.7,15.25-1.02,22.88-1.05,15.44-.06,30.85,1.07,46.2,2.66,7.75,.8,15.5,1.73,23.23,2.69,3.71,.46,7.43,.91,11.14,1.4-1.41-.18,.79,.11,1.19,.17,.94,.14,1.89,.28,2.83,.44,1.76,.29,3.51,.62,5.25,1.01s3.46,.83,5.16,1.35c.79,.24,1.58,.5,2.36,.78,.45,.16,.89,.33,1.33,.5l.66,.26c-.65-.28-.73-.31-.24-.09,3.04,1.51,6,3.06,8.83,4.93,1.41,.94,2.8,1.91,4.16,2.92,.27,.2,.55,.41,.82,.61,.15,.12,1.28,.98,.59,.45-.63-.48,.26,.2,.32,.25,.45,.35,.89,.7,1.33,1.06,2.9,2.31,5.75,4.68,8.62,7.03,5.91,4.84,11.81,9.68,17.72,14.52s12.27,11.63,20.57,12.17c4.2,.27,8.14-1.51,11.69-3.55,3.32-1.91,6.62-3.84,9.93-5.77,6.76-3.93,13.52-7.85,20.28-11.78,3.32-1.93,6.65-3.86,9.97-5.79l-11.02-8.47c-.95,4.36-2.14,8.66-3.59,12.88-.65,1.9-1.35,3.78-2.1,5.65-.22,.56-.45,1.11-.68,1.67,.6-1.46,.18-.44,.05-.13-.49,1.1-.97,2.2-1.49,3.29-3.67,7.84-8.13,15.3-13.1,22.38-1.28,1.83-2.6,3.64-3.95,5.42-.25,.33-.49,.65-.74,.97,1.08-1.42-.17,.22-.33,.42-.76,.97-1.53,1.92-2.3,2.88-2.8,3.43-5.7,6.78-8.67,10.05-6.01,6.61-12.34,12.92-18.84,19.05s-13.12,12.06-19.81,17.95c-3.62,3.19-7.24,6.38-10.91,9.51-1.77,1.51-3.56,3.01-5.36,4.48-.99,.81-2,1.59-3,2.4s1.37-1.03-.41,.32c-.65,.49-1.3,.98-1.95,1.46-4.01,2.96-8.16,5.74-12.5,8.19-2.06,1.16-4.17,2.25-6.31,3.27-1.19,.56-2.39,1.08-3.59,1.63s1.6-.64-.52,.22c-.77,.32-1.55,.63-2.33,.94-9.15,3.59-18.72,6.9-28.29,9.15-1.13,.26-2.26,.5-3.4,.7-.41,.07-.83,.14-1.24,.2,1.88-.29-.17,0-.48,.03-1.01,.09-2.03,.14-3.05,.13-.6,0-1.2-.02-1.8-.06l-.6-.05c-.87-.09-.79-.08,.23,.04-.81,.11-2.07-.44-2.86-.69-.37-.12-1.99-.94-.4-.1-.35-.18-.71-.35-1.06-.54-.53-.29-1.02-.64-1.54-.96-1.55-.94,.77,.7-.08-.05-.95-.83-1.93-1.64-2.92-2.43-4.5-3.61-9.73-6.16-15.63-4.51-5.05,1.41-8.31,5.34-11.33,9.34-.51,.68-.97,1.49-1.57,2.1,1.45-1.47-.42,.49-.77,.87-.49,.54-1.25,1.52-1.92,1.83,1.65-.76,.21-.21-.21,.05-.45,.28-.92,.5-1.38,.77-1.52,.88,1.53-.44-.15,.07-.34,.1-.67,.23-1,.33-.51,.15-1.02,.29-1.54,.4-.15,.03-1.82,.49-.59,.15s-.4,.03-.61,.05c-.54,.04-1.09,.06-1.63,.06-.97,0-2.39,.16-3.3-.18,.15,.06,1.75,.32,.34,.03-.55-.11-1.09-.21-1.64-.34-.9-.21-1.8-.47-2.68-.76-.44-.15-.87-.33-1.31-.47-1.08-.36,1.61,.81,0,0-1.04-.53-2.06-1.04-3.05-1.64-.9-.55-1.78-1.13-2.64-1.74-.19-.14-1.84-1.43-.5-.35-.41-.33-.82-.66-1.22-1-1.86-1.57-3.62-3.26-5.32-5-6.01-6.16-11.49-12.76-17.76-18.66s-12.68-11.07-19.36-16.19c-12.78-9.79-26.28-18.57-39.56-27.65-6.58-4.5-13.12-9.07-19.49-13.89-.73-.55-1.47-1.11-2.19-1.67,1.59,1.25-.77-.61-1.08-.86-1.58-1.25-3.14-2.51-4.69-3.79-3.07-2.55-6.08-5.17-8.99-7.9-5.61-5.25-11.1-10.86-15.69-17.04,1.21,1.63-.5-.68-.78-1.06-.53-.73-1.06-1.46-1.58-2.19-1.14-1.63-2.24-3.29-3.3-4.97-2.32-3.71-4.41-7.54-6.25-11.51-.62-1.33-.2-.43-.07-.13-.27-.64-.52-1.29-.76-1.95-.4-1.09-.76-2.19-1.08-3.3s-.59-2.23-.81-3.37c-.04-.2-.33-2.44-.15-.74-.07-.69-.12-1.38-.16-2.07-.22-3.91-3.29-7.69-7.5-7.5-3.87,.17-7.74,3.31-7.5,7.5,.61,10.67,5.14,20.47,10.63,29.48,4.4,7.22,9.61,13.99,15.29,20.25,11.09,12.22,24.19,22.45,37.58,32.01s27.26,18.42,40.65,27.99c3.34,2.39,6.64,4.83,9.91,7.31,1.52,1.15-1.25-.98,.25,.19,.29,.23,.59,.46,.88,.69,.88,.69,1.75,1.38,2.62,2.08,1.59,1.28,3.16,2.57,4.72,3.89,6.31,5.34,12.27,11.05,17.83,17.17,6.53,7.2,13.02,14.77,21.62,19.58,8.04,4.5,18.61,6.48,27.47,3.26,4.6-1.67,8.53-4.31,11.58-8.14,.94-1.18,1.85-2.39,2.75-3.6,.21-.28,.42-.56,.63-.84,1.07-1.45-1.07,1.22,.1-.11,.55-.63,1.07-1.27,1.67-1.84l.35-.33c.61-.52,.47-.43-.42,.29-.06-.03,2.14-1.13,.7-.51s.43-.09,.41-.05l-1.06,.14c.35-.03,.7-.02,1.05,0-.33-.41-1.43-.12-.39,.04,1.51,.23-1.05-.8,.19,.13,.43,.32,.95,.64,1.41,.92-1.27-.78-.47-.38-.15-.11,.96,.82,1.93,1.64,2.92,2.43,4.67,3.72,9.63,5.67,15.57,6.29,9.89,1.03,19.98-2.76,29.25-5.73,10.36-3.33,20.73-7.07,30.23-12.44s17.65-11.88,25.73-18.74c7.23-6.15,14.35-12.46,21.39-18.82,27.12-24.49,53.77-52.08,65.88-87.35,1.45-4.22,2.64-8.52,3.59-12.88,.65-3-.21-5.97-2.69-7.88s-5.7-2.11-8.33-.59c-13.3,7.73-26.58,15.49-39.89,23.18-.57,.33-1.14,.66-1.73,.97-.39,.21-.78,.41-1.18,.6,.32-.15,1.27-.38-.03-.04-.31,.08-.63,.15-.94,.24-1.09,.32,1.17-.15,.08-.08-.97,.06,.57,.04,.51,.11-.1,.12-1.24-.35-1.43-.41-.99-.27,.96,.64,.14,.02-.23-.18-.55-.3-.8-.45-.71-.43-1.38-.92-2.05-1.4,1.18,.84-.33-.29-.72-.61-.79-.64-1.57-1.29-2.36-1.94-5.91-4.84-11.81-9.68-17.72-14.52-11.3-9.26-22.34-19.48-36.22-24.67-7.1-2.66-14.68-3.66-22.16-4.62s-14.82-1.86-22.23-2.72c-29.71-3.46-59.85-5.82-89.64-1.84-25.82,3.45-51.53,11.35-73.19,26.18-5.57,3.81-10.9,8.02-15.82,12.64-2.26,2.12-4.4,4.38-6.76,6.4-.16,.14-1.19,1.01-.48,.42,.65-.54-.16,.12-.25,.19-.69,.49-1.4,.96-2.13,1.39-.28,.16-.56,.31-.84,.46-.2,.1-1.41,.68-.51,.28,.82-.36-.11,.03-.25,.08-.49,.16-.97,.32-1.46,.46-.3,.08-1.76,.64-2.08,.47,.41,.22,1.21-.08,.18-.03-.41,.02-.81,.06-1.22,.08-.72,.03-1.44,.02-2.15-.01-.31-.01-.62-.04-.93-.06-1.47-.07,.75,.18-.16,0-1.44-.28-2.86-.57-4.26-1-.7-.22-1.39-.47-2.08-.72-1.33-.49-.21-.09,.05,.03-.47-.22-.95-.44-1.42-.68-1.33-.68-2.61-1.44-3.85-2.27-.64-.43-1.27-.89-1.9-1.34,1.08,.79,.16,.12-.05-.05-.34-.28-.68-.56-1.02-.85-2.53-2.17-4.86-4.57-7.07-7.06s-4.34-5.1-6.44-7.7c-2.48-3.06-8.06-2.77-10.61,0-2.98,3.25-2.65,7.34,0,10.61h0Z"/><path d="M152.45,192.26c15.55,11.22,31.86,21.37,48.81,30.34,4.78,2.53,9.62,4.97,14.49,7.31v-12.95c-2.39,1.83-4.98,3.33-7.74,4.5l1.79-.76c-3.12,1.29-6.38,2.15-9.72,2.61l1.99-.27c-3.62,.47-7.27,.46-10.9,0l1.99,.27c-3.63-.5-7.16-1.44-10.55-2.84l1.79,.76c-2.61-1.11-5.1-2.48-7.42-4.11-.26-.18-.51-.36-.77-.55-.2-.15-.4-.3-.61-.45l.92,.71c-.04-.3-1.49-1.23-1.74-1.45-1.04-.91-2.03-1.88-2.98-2.89s-1.83-2.08-2.71-3.15c1.63,1.98,.07,.06-.3-.46-.4-.57-.79-1.14-1.17-1.73-1.58-2.45-2.93-5.04-4.07-7.73l.76,1.79c-1.76-4.23-2.97-8.66-3.6-13.2l.27,1.99c-.16-1.26-.28-2.52-.36-3.79-.24-3.91-3.28-7.69-7.5-7.5-3.86,.17-7.76,3.31-7.5,7.5,.87,14.22,6.62,28.19,16.89,38.22s24.35,15.22,38.42,13.75c8.01-.84,15.91-3.32,22.37-8.28,2.17-1.67,3.71-3.57,3.71-6.48,0-2.48-1.39-5.36-3.71-6.48-17.28-8.31-33.99-17.8-49.96-28.41-4.51-2.99-8.95-6.08-13.34-9.25-1.49-1.08-4.08-1.22-5.78-.76s-3.63,1.82-4.48,3.45c-.92,1.74-1.38,3.85-.76,5.78s1.78,3.28,3.45,4.48h0Z"/><path d="M353.2,229.78c11.57-12.08,23.68-23.66,36.29-34.66,3.61-3.15,7.26-6.25,10.95-9.31l-12.54-3.31c1.05,3.69,1.83,7.45,2.34,11.25l-.27-1.99c.71,5.54,1,11.26,.27,16.81l.27-1.99c-.33,2.34-.87,4.63-1.79,6.82l.76-1.79c-.34,.77-.71,1.53-1.15,2.25-.25,.41-.56,.78-.8,1.19,1.15-1.89,.62-.79,.13-.28-.29,.31-.61,.59-.91,.88-.95,.93,1.59-1.1,.18-.14-.78,.53-1.62,.97-2.49,1.34l1.79-.76c-1.53,.62-3.12,1-4.75,1.23l1.99-.27c-3.8,.46-7.62,.08-11.4-.43l1.99,.27c-11.66-1.59-23.48-3.26-34.45-7.72-1.68-.68-4.29-.12-5.78,.76s-3.04,2.69-3.45,4.48c-.44,1.92-.34,4.07,.76,5.78s2.57,2.67,4.48,3.45c6.71,2.73,13.75,4.42,20.87,5.67,3.49,.62,7.01,1.13,10.52,1.63s7.3,1.11,10.98,1.29c7.42,.36,15.56-1.42,20.64-7.26s6.61-12.83,6.95-20.15c.4-8.81-.81-17.85-3.21-26.32-.72-2.52-2.7-4.54-5.24-5.24-2.77-.76-5.18,.18-7.3,1.93-12.88,10.68-25.29,21.93-37.16,33.72-3.4,3.38-6.76,6.8-10.07,10.26-2.72,2.84-3.03,7.83,0,10.61s7.71,3.03,10.61,0h0Z"/><path d="M101.83,131.21c5.26,2.42,10.49,4.98,15.22,8.34,.26,.18,.51,.38,.77,.56,.93,.63-.86-.74-.02-.02,.48,.41,.97,.79,1.44,1.21,1.08,.95,2.1,1.96,3.05,3.04,.2,.23,.39,.47,.59,.69-.18-.2-.86-1.22-.07-.08,.34,.49,.69,.99,1,1.5s.61,1.04,.89,1.57c.19,.36,.35,.72,.52,1.09-.28-.58-.32-.87-.08-.1,.22,.69,.45,1.37,.62,2.07,.09,.36,.17,.73,.24,1.1,0-.01,.17,1.28,.1,.6,.08,.83,.04,3.49-.1,5.02-.08,.88,0,.2,.02,.02-.07,.54-.18,1.08-.28,1.61-.15,.81-.33,1.61-.51,2.41-.44,1.87-.96,3.72-1.49,5.56-2.14,7.36-4.33,14.71-5.92,22.22-3.04,14.36-4.24,29.61,.21,43.81,3.8,12.14,11.25,23.46,22.31,30.1,14.69,8.81,32.47,6.87,48.35,2.97l-9.23-5.24c1.33,6.99,2.65,13.98,3.98,20.97,.16,.84,.32,1.68,.48,2.52,.08,.45,.19,2.07,.17,.85,0,.31-.03,.77,.04,1.07,.21,.87,.13-.17,.11-.25,.11,.4-.55,.81-.07,.4,.06-.06,.96-1.09,.31-.52-.24,.21-.48,.45-.7,.68,.11-.11,.93-.59,.21-.18-.57,.33-1.11,.72-1.68,1.06-1.61,.96-3.24,1.9-4.86,2.86-12.84,7.54-25.67,15.08-38.51,22.62-3.19,1.88-6.59,3.94-8.2,7.44-2.25,4.92-.81,10.46,3.81,13.41,2.96,1.89,6.47,1.95,9.84,2.33,.49,.05,2.03,.29,.72,.08,.67,.11,1.35,.2,2.02,.32,1.45,.24,2.9,.53,4.34,.84,2.87,.63,5.72,1.4,8.52,2.3,1.29,.42,2.57,.86,3.85,1.33,.64,.24,1.27,.48,1.9,.73,.39,.15,2.27,.93,1.04,.41,5.23,2.25,10.26,4.92,15.07,7.96,2.42,1.53,4.79,3.15,7.09,4.85,.55,.41,1.11,.82,1.65,1.24,.68,.52-.05-.03-.15-.12,.27,.21,.54,.43,.81,.64,1.17,.93,2.32,1.89,3.46,2.86,4.38,3.76,8.5,7.8,12.36,12.09,2.01,2.23,3.93,4.52,5.8,6.86,.86,1.08-.32-.44,.52,.66,.42,.55,.83,1.1,1.24,1.65,.93,1.26,1.84,2.53,2.73,3.82,3.68,5.32,7.04,10.86,10.12,16.55s5.87,11.53,8.44,17.48c.15,.36,.31,.71,.46,1.07-.07-.16-.33-.8,0,0,.3,.72,.6,1.44,.89,2.16,.64,1.56,1.26,3.13,1.86,4.71,1.17,3.03,2.29,6.09,3.36,9.16,4.37,12.5,8.02,25.23,11.42,38.02,7.42,27.91,13.63,56.15,18.6,84.61,.62,3.54,1.22,7.08,1.8,10.63,.64,3.88,5.66,6.39,9.23,5.24,4.2-1.36,5.92-5.07,5.24-9.23-4.67-28.51-10.56-56.81-17.68-84.8-6.64-26.09-14.03-52.17-25.57-76.58-10.56-22.31-25.16-43.13-44.73-58.43-9.71-7.59-20.15-13.78-31.68-18.22-5.39-2.07-10.96-3.68-16.64-4.72-3.23-.59-6.5-1.02-9.77-1.34-.3-.03-.6-.05-.9-.09,.15,.02,1.33-.06,.57,.04-.23,.03-.63-.29-.82-.22,.47-.17,1.52,1.05,1.59,1.13l.79,.81v4.79c-.03,.21-.89,.73-.21,.25s-.12-.01-.23,.08c.34-.28,.74-.5,1.12-.72,12.54-7.72,25.43-14.94,38.12-22.4,6.14-3.61,14.55-7.1,16.03-14.94,.75-4.01-.1-7.87-.85-11.81-.66-3.5-1.33-6.99-1.99-10.49s-1.33-6.99-1.99-10.49c-.77-4.06-5.55-6.14-9.23-5.24-3.28,.8-6.58,1.53-9.91,2.07-.51,.08-1.03,.16-1.54,.24,.17-.02,.95-.12,.06,0-.77,.09-1.55,.18-2.32,.25-1.8,.16-3.6,.26-5.41,.27-1.66,.01-3.32-.05-4.98-.19-.34-.03-2.18-.28-1.03-.1-.88-.14-1.75-.3-2.61-.49-1.62-.36-3.19-.84-4.75-1.37,.01,0-1.17-.43-.53-.18,.59,.23-.38-.16-.4-.18-.77-.36-1.53-.74-2.27-1.15-1.11-.61-2.18-1.28-3.21-2-.34-.24-.68-.49-1.02-.74,.09,.07,.9,.77,.28,.2-.54-.5-1.12-.95-1.66-1.44-1-.93-1.96-1.91-2.86-2.93-.42-.47-.81-.97-1.23-1.45-.55-.64,.13,.18,.2,.27-.31-.43-.63-.85-.93-1.29-1.59-2.28-2.97-4.71-4.15-7.22-.13-.27-.82-1.88-.54-1.17,.33,.8-.07-.2-.11-.3-.15-.4-.31-.81-.46-1.21-.48-1.32-.91-2.66-1.29-4.02s-.71-2.72-1-4.1c-.13-.63-.25-1.27-.36-1.91-.07-.42-.13-.85-.2-1.28,.11,.68,.1,.88,.02,.08-.36-3.52-.49-7.05-.37-10.59,.06-1.83,.19-3.66,.37-5.48,.08-.84,.17-1.68,.28-2.53s.04-.3,.01-.11c.1-.7,.21-1.4,.32-2.1,.59-3.65,1.36-7.27,2.22-10.86,1.75-7.27,4.12-14.36,5.98-21.59s2.89-15.41,.2-22.68c-4.99-13.46-17.72-20.79-30.11-26.49-3.56-1.64-8.24-1.13-10.26,2.69-1.74,3.3-1.11,8.51,2.69,10.26h0Z"/><path d="M95.84,124.04c-20.89,51.29-19.56,107.81-19.21,162.19,.18,27.11,.63,55.59-3.25,81.9-1.02,6.95-2.37,13.85-4.18,20.64-.86,3.24-1.83,6.45-2.91,9.62-.99,2.89-2.54,6.97-3.36,8.77-5.08,11.25-11.4,21.79-18.34,31.98-15.78,23.19-33.71,44.92-44.2,71.24-2.05,5.13,4.15,11.16,9.23,9.23,35.08-13.35,67.4-32.85,95.48-57.76-4.18-1.1-8.36-2.21-12.54-3.31,10,24.05,20,48.1,29.99,72.15,1.18,2.85,2.98,4.94,6.24,5.37,2.93,.39,5.96-.97,7.47-3.58,12.34-21.33,24.67-42.65,37.01-63.98l-10.26,2.69c34.3,22.77,67.98,45.16,94.17,77.5,1.99,2.46,2.71,3.4,4.57,5.94,1.7,2.33,3.35,4.69,4.93,7.09,3.19,4.84,6.13,9.84,8.82,14.97l10.26-10.26c-29.25-17.67-54.99-39.6-77.33-65.84l-7.3,12.54c4.49,1.22,6.92,2.35,11.03,4.98,3.72,2.38,6.12,4.41,9.61,7.75,6.81,6.52,12.88,13.85,18.86,21.13,12.5,15.21,24.11,31.45,34.71,48.4,6.03,9.65,11.71,19.51,17.04,29.56,3.93,7.4,16.53,2.33,13.71-5.78s-2.25-15.51,.25-23.81,6.75-16.23,11.44-24.12c10.13-17.05,20.95-33.72,32.22-50.04,6.46-9.36,13.09-18.59,19.88-27.71,2.42-3.25,.53-8.38-2.69-10.26-3.83-2.24-7.83-.57-10.26,2.69-12.36,16.59-24.18,33.57-35.41,50.94-5.56,8.59-11,17.27-16.25,26.06s-9.91,17.62-13.01,27.2c-3.43,10.63-4.36,22.35-.64,33.03,4.57-1.93,9.14-3.85,13.71-5.78-9.83-18.51-20.84-36.38-33-53.45-6.27-8.81-12.85-17.41-19.67-25.8-6.16-7.57-12.43-15.19-19.41-22.03-7.97-7.8-17.23-14.47-28.12-17.42-3.21-.87-6.79,.58-8.47,3.45-1.77,3.03-1,6.53,1.17,9.09,22.87,26.87,50.16,49.95,80.36,68.19,6.68,4.03,13.63-3.83,10.26-10.26-19.92-38.09-53.48-66.27-88.05-90.65-9.82-6.93-19.81-13.6-29.83-20.25-3.37-2.23-8.32-.66-10.26,2.69-12.34,21.33-24.67,42.65-37.01,63.98l13.71,1.79c-10-24.05-20-48.1-29.99-72.15-2.19-5.28-7.97-7.36-12.54-3.31-25.75,22.84-56.84,41.71-88.87,53.9,3.08,3.08,6.15,6.15,9.23,9.23,.94-2.35,1.74-4.19,3.1-7.02s2.86-5.73,4.41-8.53c2.98-5.38,6.24-10.61,9.64-15.74,6.85-10.33,14.28-20.25,21.4-30.39,7.08-10.08,13.89-20.4,19.4-31.43,6.21-12.42,10.61-25.58,13.32-39.2,5.47-27.59,5.61-56.11,5.55-84.13s-.78-55.02,.79-82.49c1.71-29.86,6.33-59.19,17.82-87.41,1.48-3.64-1.61-8.4-5.24-9.23-4.35-.99-7.64,1.34-9.23,5.24h0Z"/><path d="M288.79,562.85c3.07-15.71,7.43-31.16,13.07-46.14,.7-1.86,1.42-3.71,2.16-5.55,.34-.86,.69-1.72,1.05-2.57,.15-.37,.3-.73,.46-1.1,.98-2.36-.25,.58,.32-.77,1.62-3.77,3.31-7.5,5.08-11.2,3.43-7.15,7.17-14.16,11.19-21,8.05-13.69,17.23-26.76,22.55-41.86,2.73-7.74,3.57-15.85,5.4-23.81,.43-1.85,.91-3.69,1.51-5.49,.26-.77,.53-1.54,.83-2.3,.08-.2,.63-1.45,.24-.6s.42-.88,.41-.86c1.37-2.87,3.02-5.61,4.87-8.19,.25-.34,.5-.69,.75-1.03,.07-.09,.72-.92,.19-.25-.47,.59,.8-.97,1.02-1.23,1.1-1.31,2.25-2.59,3.43-3.83,2.25-2.36,4.63-4.59,7.07-6.75,5.07-4.47,10.43-8.6,15.73-12.8s10.9-8.33,15.34-13.42c6.05-6.95,8.65-15.19,6.79-24.3-1.57-7.7-6.37-14.72-11.84-20.19s-11.45-9.63-16.62-15.05c-.59-.62-1.17-1.25-1.72-1.89-.32-.37-.63-.75-.94-1.12,.09,.11,.58,.78,.08,.1-1.12-1.51-2.12-3.11-3.01-4.76-.39-.72-.75-1.46-1.1-2.21-.63-1.33-.21-.45-.08-.15-.18-.44-.34-.88-.5-1.32-.6-1.66-1.1-3.35-1.49-5.07-.18-.8-.33-1.61-.48-2.42-.26-1.49-.06-.42-.03-.1-.05-.47-.1-.93-.14-1.4-.15-1.87-.18-3.76-.07-5.63,.02-.35,.05-.7,.08-1.05,.02-.21,.16-1.67,.05-.75-.09,.84,.05-.31,.06-.4,.08-.46,.16-.93,.25-1.39s.22-.9,.31-1.36c.01-.06,.33-1.18,.07-.42l-.13,.25c.41-.66,.45-.79,.13-.4,.02,.09-1.61,1.18-.13,.16-.21,.14-1.01,.23-.26,.15,.42-.04,.9-.18,1.31-.3,.82-.24-.16,0-.31,.02,.45-.07,.92-.11,1.37-.17,2.31-.3,4.62-.63,6.91-1.07,3.49-.68,6.94-1.6,10.32-2.72,7.24-2.41,14.27-5.68,20.7-9.8s12.24-8.85,17.36-14.34c3.01-3.22,5.89-6.9,6.81-11.31,1.02-4.89-.14-9.64-1.73-14.26-2.6-7.5-5.86-14.82-7.58-22.6-.2-.89-.37-1.78-.52-2.68-.03-.17-.23-1.75-.14-.92,.08,.73-.04-.53-.04-.54-.15-2.09-.16-4.13-.03-6.22,.1-1.65,.03-.5-.02-.13,.06-.44,.14-.88,.22-1.32,.14-.76,.32-1.51,.51-2.26s.41-1.48,.66-2.21c.14-.42,.29-.82,.44-1.24,.23-.65,.27-.7-.02-.03,1.35-3.14,3.15-6.09,5.16-8.85,.2-.27,.4-.54,.6-.81-.79,1.05-.08,.11,.08-.08,.51-.61,1.01-1.22,1.53-1.82,1.2-1.38,2.45-2.72,3.74-4.03,2.43-2.46,4.99-4.8,7.61-7.06,1.3-1.12,2.61-2.23,3.93-3.33,.62-.51,1.23-1.02,1.85-1.53,.95-.77-.79,.52,.22-.17,.5-.34,1-.68,1.54-.96-.59,.31-.4-.09-.14,.08l.34-.1c-.8,.07-.93,.1-.41,.08,.88,0-.54-.12-.6-.13,1.24,.27,.05-.09-.22-.22,.34,.16,.65,.36,.98,.55,.21,.12,.76,.7,.16,.1-.7-.7,.17,.24,.34,.41,.36,.37,.69,.75,1.01,1.15-.9-1.1,.18,.37,.45,.8,.39,.63,.75,1.27,1.09,1.92,.89,1.72,1.66,3.5,2.45,5.27s1.51,3.38,2.25,5.08c.42,.97,.84,1.94,1.26,2.92-.02-.04,.49,1.16,.24,.57-.23-.54,.47,1.13,.54,1.3,1.53,3.66,3,7.35,4.43,11.05,5.76,14.94,10.72,30.18,14.88,45.65,4.16,15.46,7.5,31.14,10.03,46.96,1.32,8.24,2.11,14.24,3.01,22.8,.83,7.9,1.45,15.82,1.86,23.74,.84,15.99,.84,32.02,0,48.01-.43,8.06-1.07,16.11-1.93,24.14s-2.32,16.65-2.55,25.04c-.24,8.9,1.37,17.51,4.68,25.76s7.14,16.25,10.78,24.33c7.28,16.14,14.56,32.29,21.84,48.43,3.55,7.87,7.1,15.74,10.65,23.62l10.26-10.26c-2.74-1.41-5.37-3.01-7.89-4.8-.55-.39-1.08-.82-1.63-1.2-.89-.6,.97,.8,.14,.11-.3-.25-.61-.48-.91-.72-1.21-.98-2.39-1.99-3.54-3.03-4.62-4.14-8.88-8.68-13.05-13.27-8.54-9.39-16.85-18.99-27.22-26.43-5.85-4.2-12.48-7.42-19.47-9.21-3.01-.77-7.02,.46-8.47,3.45-14.01,28.89-30.16,56.73-48.34,83.2-5.19,7.56-10.55,15.01-16.07,22.34h12.95c-16.4-26.83-32.8-53.66-49.2-80.49-2.05-3.35-6.81-4.92-10.26-2.69s-4.88,6.68-2.69,10.26c16.4,26.83,32.8,53.66,49.2,80.49,1.39,2.27,3.79,3.71,6.48,3.71,2.88,0,4.83-1.53,6.48-3.71,19.29-25.67,36.66-52.77,51.89-81.04,4.35-8.08,8.52-16.25,12.52-24.5l-8.47,3.45c1.39,.36,2.76,.76,4.11,1.24,.71,.25,1.41,.54,2.11,.8,.8,.29-.45-.19-.5-.21,.42,.2,.85,.38,1.27,.58,2.61,1.24,5.11,2.7,7.5,4.32,.62,.42,1.23,.85,1.84,1.29,.3,.22,.6,.45,.9,.67-.19-.14-1.24-.99-.18-.14,1.18,.95,2.35,1.92,3.49,2.92,2.24,1.97,4.39,4.05,6.48,6.18,8.57,8.71,16.18,18.35,25.21,26.61,5.37,4.91,11.24,9.43,17.73,12.76,2.87,1.48,6.77,1.35,9.09-1.17s2.61-5.91,1.17-9.09c-7.4-16.41-14.8-32.82-22.2-49.23-3.67-8.14-7.34-16.28-11.01-24.42-1.87-4.14-3.73-8.27-5.6-12.41s-2.91-6.3-4.37-10.49c-2.84-8.17-3.14-15.12-2.37-23.99,.73-8.35,2-16.64,2.79-24.99,1.52-16.2,2.16-32.49,1.92-48.76-.47-32.8-4.44-65.62-11.72-97.61-3.61-15.87-8.06-31.55-13.34-46.95-2.62-7.64-5.44-15.2-8.46-22.68s-6.21-15.7-10.07-23.12-11.17-14.02-20.08-11.45c-4.35,1.25-7.74,4.47-11.14,7.31-2.65,2.22-5.26,4.49-7.77,6.86-11.05,10.43-20.4,23.73-20.13,39.55,.15,8.47,2.75,16.58,5.66,24.45,1.43,3.85,2.96,7.68,4.17,11.61,.27,.88,.51,1.76,.7,2.66,.35,1.63,.06,.62,.05,.32,.02,.49,.06,1.04,0,1.54,.05-.43,.27-.96-.14,.24,.04-.13,.45-.92,.07-.12-.21,.44-.46,.85-.72,1.26-.21,.33-.98,1.34-.35,.55-2.23,2.77-4.91,5.27-7.59,7.6-.71,.62-1.44,1.24-2.18,1.84-.37,.3-.74,.6-1.11,.89,.12-.09,.79-.6,.11-.09-1.52,1.14-3.07,2.23-4.66,3.27-3.08,2.01-6.29,3.82-9.61,5.42-.75,.36-1.5,.71-2.26,1.05-.17,.07-1.53,.65-.74,.33,.71-.3-.37,.15-.42,.17-1.77,.69-3.55,1.35-5.36,1.94-3.5,1.13-7.07,2.04-10.69,2.7-.82,.15-1.64,.28-2.46,.41-1.5,.23-.44,.06-.12,.02-.45,.06-.89,.11-1.34,.17-2.66,.35-5.27,.71-7.64,2.09-7.77,4.54-8.68,15.48-8.09,23.6,.58,8,2.89,15.89,7.13,22.73s10.18,12.05,16.23,17.21c2.89,2.46,5.77,4.95,8.36,7.72,.56,.6,1.09,1.23,1.63,1.85,.14,.16,.86,1.12,.15,.17,.21,.29,.42,.58,.63,.87,1.09,1.56,2.07,3.2,2.9,4.92,.08,.17,.65,1.52,.34,.72s.18,.56,.24,.74c.26,.76,.49,1.54,.67,2.33,.1,.45,.18,.9,.27,1.34-.03-.14-.07-1.18-.05-.31,.03,1.02,.06,2.02,.04,3.04,0,.4-.32,1.3,.01,.02-.09,.33-.14,.67-.22,1-.11,.45-.26,.88-.39,1.33-.34,1.12,.47-.89-.05,.18-.36,.75-.76,1.47-1.21,2.17-.26,.4-.53,.79-.8,1.17,.61-.84-.11,.11-.4,.44-4.51,5.17-10.24,9.39-15.6,13.63s-10.66,8.33-15.72,12.81c-10.82,9.58-19.94,21.1-23.55,35.33-2.01,7.94-2.71,16.14-5.29,23.94-.6,1.81-1.26,3.59-1.98,5.36,.44-1.08-.67,1.51-.76,1.7-.42,.93-.86,1.85-1.31,2.76-1.74,3.56-3.66,7.03-5.67,10.44-8.13,13.89-16.79,27.31-23.69,41.89s-12.96,30.43-17.45,46.32c-2.16,7.64-3.99,15.36-5.51,23.15-.75,3.84,1.08,8.28,5.24,9.23,3.71,.85,8.42-1.12,9.23-5.24h0Z"/><path d="M246.23,306.01c-.24-1.27-.44-2.54-.62-3.81l.27,1.99c-.92-6.9-.89-13.88,.03-20.78l-.27,1.99c.99-7.16,2.91-14.15,5.71-20.8l-.76,1.79c1.47-3.44,3.15-6.77,5.07-9.98,.99-1.65,2.05-3.27,3.16-4.85,.52-.74,1.06-1.46,1.59-2.18,.85-1.14-1.06,1.33-.23,.3,.32-.4,.64-.8,.97-1.2,2.4-2.91,5.02-5.67,7.86-8.16,.73-.64,1.53-1.22,2.25-1.87-1.69,1.5-.46,.37,0,.04,.4-.28,.8-.56,1.21-.83,1.73-1.15,3.55-2.14,5.46-2.95l-1.79,.76c1.89-.77,3.82-1.33,5.84-1.62l-1.99,.27c1.7-.21,3.38-.21,5.08,0l-1.99-.27c1.66,.24,3.25,.67,4.8,1.31l-1.79-.76c1.06,.45,2.07,.98,3.04,1.58,.51,.32,1,.67,1.5,1.02,.95,.68-1.27-1.03-.6-.46,.21,.18,.43,.35,.64,.54,.9,.78,1.74,1.62,2.54,2.49,.39,.43,.77,.86,1.13,1.31,.18,.22,.36,.46,.55,.68-1.55-1.78-.66-.86-.32-.4,2.98,4.04,5.26,8.56,7.21,13.17l-.76-1.79c5.8,13.83,10.29,28.33,13.93,42.87,.92,3.68,1.78,7.37,2.57,11.08s1.28,7.15,2.19,10.65c.99,3.83,2.85,7.63,5.83,10.31,2.65,2.38,5.7,3.95,9.08,5.03,5.6,1.78,11.62,1.78,17.09,4.01l-1.79-.76c1.07,.46,2.1,.99,3.07,1.64l-1.52-11.78c-.55,.48-1.13,.92-1.68,1.39,2.03-1.71,0-.04-.53,.33-1.3,.9-2.64,1.73-4.01,2.52-2.56,1.46-5.2,2.76-7.87,4-5.31,2.48-10.75,4.75-15.77,7.82-6.06,3.7-11.33,8.47-15.06,14.56s-5.62,12.51-6.87,19.17c-1.55,8.27-2.21,16.7-3.33,25.04l.27-1.99c-2.63,19.47-6.41,38.77-11.33,57.8h14.46c-5.06-19.76-9.88-39.59-15.21-59.28-4.47-16.53-11.06-33.46-25.99-43.22-7.07-4.62-15.29-7.18-23.03-10.43l1.79,.76c-3.69-1.56-7.36-3.29-10.64-5.61-.17-.12-.34-.24-.5-.36-1.02-.72,.59,.35,.66,.52-.13-.31-.81-.66-1.07-.88-.73-.64-1.43-1.31-2.09-2.03-.31-.34-.6-.71-.91-1.05-.58-.64,1.17,1.59,.51,.66-.12-.17-.24-.34-.36-.51-.61-.87-1.15-1.78-1.63-2.73l-2.69,10.26c13.72-9.77,27.52-19.42,41.4-28.95,3.1-2.13,4.59-5.77,3.07-9.37-1.44-3.4-5.21-5.34-8.85-4.34-24.03,6.61-48.34,12.23-72.83,16.83-6.89,1.29-13.79,2.5-20.7,3.63-1.55,.25-2.99,1.51-3.9,2.69-.98,1.26-1.68,2.9-1.61,4.54,.15,3.32,2.22,6.31,5.51,7.23,16.18,4.53,33.18,6.56,49.97,5.85,4.65-.2,9.29-.61,13.9-1.22,2.07-.28,3.76-.66,5.3-2.2,1.3-1.3,2.28-3.44,2.2-5.3s-.72-3.95-2.2-5.3c-1.35-1.24-3.39-2.45-5.3-2.2-13.62,1.81-27.43,1.79-41.04-.04l1.99,.27c-7.04-.97-13.99-2.41-20.83-4.32v14.46c24.6-4.02,49.03-9.06,73.21-15.11,6.8-1.7,13.57-3.48,20.32-5.34l-5.78-13.71c-13.88,9.53-27.68,19.18-41.4,28.95-3.44,2.45-4.69,6.38-2.69,10.26,6.8,13.19,21.77,17.32,34.44,22.66l-1.79-.76c2.76,1.17,5.48,2.43,8.07,3.94,1.35,.78,2.63,1.65,3.89,2.56,1.12,.81-1.34-1.1-.35-.26,.38,.32,.76,.63,1.13,.95,.6,.52,1.18,1.07,1.74,1.63,1.17,1.17,2.19,2.44,3.27,3.68-1.53-1.73-.63-.82-.29-.36,.29,.39,.57,.79,.85,1.19,.45,.65,.89,1.32,1.31,1.99,1.81,2.89,3.33,5.96,4.67,9.09l-.76-1.79c3.42,8.12,5.57,16.68,7.75,25.2,2.78,10.85,5.55,21.69,8.33,32.54,1.56,6.11,3.13,12.21,4.69,18.32,.78,3.06,4.01,5.65,7.23,5.51s6.38-2.22,7.23-5.51c5.19-20.08,9.05-40.44,11.76-61,.68-5.15,1.21-10.31,1.9-15.46l-.27,1.99c.86-6.32,2.03-12.64,4.47-18.56l-.76,1.79c.79-1.85,1.68-3.66,2.75-5.37,.49-.79,1-1.75,1.66-2.42-.04,.04-1.22,1.49-.44,.59,.17-.2,.34-.41,.51-.61,.31-.37,.64-.73,.97-1.08,.62-.66,1.26-1.29,1.93-1.89,.31-.28,.62-.56,.94-.83,.25-.21,1.77-1.42,.64-.53s.13-.08,.39-.27c.39-.28,.78-.55,1.18-.82,.8-.53,1.61-1.04,2.44-1.53,6.54-3.88,13.72-6.52,20.45-10.04,4.24-2.22,8.21-4.85,11.83-8,1.77-1.54,2.36-4.09,2.06-6.3-.32-2.4-1.58-4.14-3.58-5.48-3.69-2.46-8.11-3.64-12.42-4.42-3.79-.69-7.67-1.16-11.27-2.61l1.79,.76c-.64-.27-1.28-.57-1.88-.92-.34-.2-.67-.42-1-.63-1.03-.67,1.55,1.39,.47,.35-.25-.24-.52-.47-.76-.72-.22-.23-1.12-1.35-.21-.18s-.06-.17-.23-.45c-.28-.48-.51-.97-.73-1.48l.76,1.79c-1.43-3.5-1.85-7.4-2.61-11.09-.83-4.02-1.73-8.03-2.71-12.02-1.94-7.9-4.18-15.73-6.7-23.47s-5.38-15.76-8.68-23.39c-2.64-6.1-5.99-11.9-10.45-16.85-2.28-2.52-4.99-4.79-7.93-6.49-3.53-2.03-7.25-3.09-11.26-3.54-8.78-.99-17.02,3.3-23.73,8.52-11.43,8.88-19.66,21.65-24.91,35s-7.02,27.18-5.31,40.84c.28,2.2,.58,4.39,.99,6.57,.72,3.86,5.59,6.41,9.23,5.24,4.13-1.34,6.01-5.09,5.24-9.23h0Z"/></svg>