<?xml version="1.0" encoding="UTF-8"?><svg id="_图层_1" xmlns="http://www.w3.org/2000/svg" viewBox="0 0 507.83 548.51"><path d="M161.77,67.21c28.98-12.73,57.96-25.46,86.95-38.2,8.2-3.6,16.39-7.26,24.61-10.81l-2.15,.91c1.38-.58,2.77-1.09,4.25-1.34l-2.39,.32c.73-.09,1.44-.11,2.18-.05l-2.39-.32c.67,.1,1.3,.27,1.93,.52l-2.15-.91c.85,.38,1.61,.86,2.35,1.42l-1.82-1.41c2.2,1.76,4.09,3.92,6.09,5.9s4.04,3.96,6.09,5.9c4.22,3.98,8.54,7.85,12.97,11.61,9.31,7.91,19.03,15.36,29.1,22.28,5.4,3.71,10.9,7.25,16.5,10.64l-1.82-14.14c-6.5,6.91-13.54,13.29-21.05,19.09l1.82-1.41c-12.23,9.42-25.64,17.25-39.86,23.26l2.15-.91c-.39,.16-.78,.33-1.18,.49l8.76,15.04c1.2-1.53,2.06-2.67,2.79-4.42s1.03-3.15,1.22-5.09c.26-2.53-.38-5.07-1.35-7.38-1.86-4.4-5.28-8.36-9.67-10.41-2.75-1.28-5.41-2.1-8.48-2.12-2.55-.02-5.28,.41-7.69,1.29-5.09,1.86-9.36,4.86-13.36,8.5-3.41,3.11-6.46,6.6-10.1,9.46l1.82-1.41c-1.76,1.36-3.63,2.55-5.68,3.42l2.15-.91c-1.33,.54-2.68,.92-4.09,1.14l2.39-.32c-1.52,.19-3.02,.18-4.53-.02l2.39,.32c-1.79-.28-3.51-.79-5.19-1.47l2.15,.91c-5.53-2.34-10.35-6.12-15.23-9.55-5.45-3.83-10.9-7.66-16.36-11.49-10.9-7.66-21.81-15.31-32.71-22.97-6.13-4.31-12.27-8.61-18.4-12.92-1.82-1.28-4.87-1.48-6.94-.91s-4.35,2.19-5.38,4.14c-1.1,2.09-1.66,4.62-.91,6.94l.91,2.15c.8,1.35,1.88,2.43,3.23,3.23,20.85,15.74,42.22,31.38,67.12,40.1,6.79,2.38,13.78,4.12,20.91,5.1,2.09,.29,3.84,.4,5.86-.45,1.73-.73,3.4-1.98,4.3-3.68,1.85-3.51,1.54-8.05-1.41-10.91-12.06-11.69-25.51-22.06-39.9-30.71-3.96-2.38-7.99-4.62-12.1-6.74l-9.08,15.54c12.05,5.34,22.77,13.2,34.75,18.68,12.85,5.87,27.76,9.49,41.68,5.24,3.87-1.18,7.54-2.97,10.96-5.11,3.04-1.91,5.99-4,9.3-5.45l-2.15,.91c1.63-.68,3.32-1.16,5.07-1.41l-2.39,.32c1.24-.15,2.46-.17,3.7-.04l-2.39-.32c1.08,.15,2.12,.41,3.13,.84l-2.15-.91c.66,.31,1.28,.66,1.88,1.09l-1.82-1.41c1.6,1.25,2.96,2.75,4.71,3.81,2.09,1.26,4.72,1.96,7.15,1.92,4.67-.07,8.79-2.57,12.05-5.73,1.96-1.9,3.53-4.15,5.38-6.15s4-3.96,6.22-5.69l-1.82,1.41c3.64-2.8,7.61-5.12,11.83-6.93l-2.15,.91c4.35-1.83,8.91-3.09,13.59-3.73l-2.39,.32c2.08-.27,4.17-.42,6.26-.44,4.71-.05,9.22-4.1,9-9s-3.96-9.05-9-9c-16.04,.17-31.9,6.85-43.18,18.28-2.77,2.81-4.93,6.24-8.07,8.67l1.82-1.41c-.68,.5-1.38,.93-2.16,1.27l2.15-.91c-.53,.2-1.04,.34-1.6,.41l2.39-.32c-.33,.02-.64,.02-.97,0l2.39,.32c-.46-.07-.87-.17-1.31-.34l2.15,.91c-.46-.21-.86-.46-1.27-.76l1.82,1.41c-1.61-1.31-3.05-2.8-4.86-3.89-1.7-1.03-3.71-1.86-5.68-2.22-4.19-.76-8.44-.63-12.52,.69-6.94,2.23-12.27,7.21-18.88,10.08l2.15-.91c-2.7,1.13-5.5,1.87-8.39,2.29l2.39-.32c-3.76,.5-7.54,.44-11.29-.04l2.39,.32c-5.53-.74-10.88-2.34-16.02-4.49l2.15,.91c-12.87-5.47-24.15-13.97-36.93-19.64-2.29-1.01-4.42-1.6-6.94-.91-2.09,.57-4.35,2.19-5.38,4.14-2.18,4.12-1.24,10.01,3.23,12.31,11.34,5.85,22.13,12.71,32.24,20.5l-1.82-1.41c6.26,4.85,12.25,10.03,17.94,15.54l8.76-15.04c-9.79-1.34-19.29-4.16-28.38-7.99l2.15,.91c-16.34-6.93-31.18-16.86-45.45-27.31-4.04-2.96-8.05-5.97-12.05-8.99l-9.08,15.54c16.29,11.44,32.58,22.88,48.86,34.31,8.07,5.67,16.12,11.36,24.21,17s18.37,10.65,28.74,7.47c5.51-1.68,10.15-5.07,14.33-8.94,3.35-3.09,6.37-6.52,9.98-9.33l-1.82,1.41c1.78-1.36,3.67-2.55,5.74-3.43l-2.15,.91c1.32-.53,2.66-.91,4.07-1.12l-2.39,.32c1.07-.13,2.12-.17,3.19-.04l-2.39-.32c.83,.14,1.62,.36,2.41,.68l-2.15-.91c.98,.43,1.87,.96,2.72,1.61l-1.82-1.41c.74,.6,1.41,1.26,2.01,2l-1.41-1.82c.63,.81,1.15,1.67,1.55,2.62l-.91-2.15c.25,.64,.43,1.28,.55,1.95l-.32-2.39c.09,.66,.1,1.3,.03,1.96l.32-2.39c-.09,.57-.23,1.1-.45,1.63l.91-2.15c-.21,.45-.45,.87-.74,1.28l1.41-1.82-.19,.24c-1.27,1.62-2.19,3.06-2.48,5.17-.26,1.92-.01,4.06,1.07,5.74,.84,1.3,1.93,2.39,3.23,3.23,1.69,1.09,5.01,1.7,6.94,.91,9.83-4.07,19.33-8.74,28.37-14.37,8.99-5.6,17.53-11.99,25.48-18.98,4.25-3.74,8.32-7.68,12.2-11.8s3.25-11.07-1.82-14.14c-10.95-6.62-21.51-13.86-31.65-21.68l1.82,1.41c-8.94-6.92-17.54-14.28-25.75-22.06-2.05-1.94-4.08-3.92-6.08-5.91-2.36-2.35-4.6-4.68-7.28-6.68-3.08-2.29-7.16-3.55-11-3.12-2.06,.23-3.9,.56-5.81,1.32-2.05,.82-4.07,1.72-6.09,2.61-23.11,10.15-46.22,20.3-69.33,30.46-13.04,5.73-26.08,11.46-39.13,17.19-1.93,.85-3.6,3.44-4.14,5.38-.59,2.15-.33,5.02,.91,6.94s3.08,3.61,5.38,4.14l2.39,.32c1.62,0,3.14-.41,4.54-1.23h0Z"/><path d="M95.93,167.73c19.83,8.86,39.58,17.95,59.51,26.58,2.81,1.21,5.62,2.48,8.67,2.96,3.89,.62,7.48,.49,11.34-.41,4.37-1.02,8.62-2.82,12.81-4.4,8.51-3.19,17.02-6.64,24.88-11.22,9.24-5.37,17.32-12.31,23.43-21.12,1.22-1.76,1.56-4.93,.91-6.94-.7-2.15-2.05-4.33-4.14-5.38-24.01-12.09-48.02-24.17-72.03-36.26-11.97-6.02-23.94-12.05-35.9-18.07-5.95-2.99-11.89-5.99-17.84-8.98-3.41-1.71-6.8-3.57-10.41-4.83-4.01-1.39-8.65-1.45-12.64,.05-3.52,1.32-6.59,3.27-9.76,5.23-2.82,1.74-5.65,3.48-8.47,5.22-5.65,3.48-11.29,6.96-16.94,10.45-11.43,7.05-22.87,14.1-34.3,21.16-2.63,1.62-5.39,3.13-7.9,4.93-4.29,3.08-7.55,7.43-7.1,13.02,.32,3.87,1.53,7.67,2.48,11.42,.83,3.31,1.67,6.62,2.5,9.94,3.27,13,6.55,26.01,9.82,39.01,6.55,26.01,13.09,52.02,19.64,78.03,.81,3.23,1.63,6.46,2.44,9.69,.68,2.71,2.7,4.77,5.21,5.83,2.82,1.19,5.29,.77,8.01-.45,10.32-4.65,20.64-9.31,30.96-13.96,5.13-2.31,10.29-4.58,15.4-6.95,3.19-1.48,5.94-3.66,7.9-6.6s2.62-6.8,2.69-10.35c.11-5.53-.14-11.08-.22-16.61s-.16-11.48-.25-17.22c-.16-11.39-.33-22.79-.49-34.18-.18-12.81-.37-25.62-.55-38.42-.07-4.71-4.09-9.22-9-9s-9.07,3.96-9,9c.41,28.44,.82,56.89,1.23,85.33,.06,3.99,.11,7.98,.17,11.98,.05,3.69,.39,7.51-.03,11.18l.32-2.39c-.12,.81-.29,1.57-.57,2.34l.91-2.15c-.27,.62-.58,1.18-.98,1.72l1.41-1.82c-.42,.5-.87,.93-1.38,1.33l1.82-1.41c-1.57,1.14-3.37,1.88-5.13,2.67-2.11,.95-4.22,1.9-6.33,2.85-4.22,1.9-8.44,3.8-12.65,5.71-8.44,3.8-16.87,7.61-25.31,11.41,4.41,1.79,8.81,3.59,13.22,5.38-4.76-18.9-9.51-37.8-14.27-56.7s-9.51-37.8-14.27-56.7c-1.34-5.33-2.68-10.66-4.02-15.99-.65-2.58-1.3-5.17-1.95-7.75s-1.49-5.37-1.98-8.09l.32,2.39c-.08-.61-.11-1.19-.07-1.8l-.32,2.39c.07-.43,.16-.81,.31-1.22l-.91,2.15c.2-.44,.44-.83,.73-1.21l-1.41,1.82c.4-.46,.84-.87,1.31-1.25l-1.82,1.41c2.17-1.63,4.61-2.95,6.92-4.37s4.8-2.96,7.2-4.44c4.94-3.05,9.88-6.09,14.82-9.14,9.88-6.09,19.76-12.19,29.64-18.28,2.82-1.74,5.65-3.48,8.47-5.22,2.63-1.62,5.22-3.43,8.06-4.68l-2.15,.91c.95-.39,1.89-.68,2.9-.86l-2.39,.32c.88-.11,1.72-.12,2.6-.03l-2.39-.32c1.46,.21,2.83,.66,4.19,1.23l-2.15-.91c4.29,1.88,8.43,4.17,12.62,6.27s8.62,4.34,12.93,6.51c8.62,4.34,17.25,8.68,25.87,13.02,17.32,8.72,34.64,17.44,51.96,26.15,9.74,4.9,19.48,9.8,29.21,14.7l-3.23-12.31c-.51,.73-1.03,1.45-1.57,2.16l1.41-1.82c-2.93,3.78-6.36,7.11-10.12,10.05l1.82-1.41c-6.8,5.25-14.49,9.16-22.37,12.49l2.15-.91c-3.7,1.56-7.45,3-11.23,4.38-4.14,1.52-8.32,3.32-12.71,3.94l2.39-.32c-1.37,.16-2.71,.18-4.08,.02l2.39,.32c-2.21-.32-4.28-1.05-6.33-1.91l2.15,.91c-15.59-6.67-30.99-13.83-46.47-20.74-4.48-2-8.96-4-13.45-6.01-2.28-1.02-4.43-1.6-6.94-.91-2.09,.57-4.35,2.19-5.38,4.14-1.1,2.09-1.66,4.62-.91,6.94,.68,2.09,2.04,4.44,4.14,5.38h0Z"/><path d="M344.95,137.04c1.47,1.09,2.93,2.2,4.38,3.31l-1.82-1.41c10.98,8.51,21.27,17.89,30.75,28.05,3.22,3.45,9.52,3.5,12.73,0,3.39-3.69,3.43-9.05,0-12.73-11.27-12.07-23.69-22.94-36.95-32.77-1.76-1.3-4.92-1.46-6.94-.91s-4.35,2.19-5.38,4.14c-1.1,2.09-1.66,4.62-.91,6.94s2.15,3.91,4.14,5.38h0Z"/><path d="M356.91,134.28c30.54-11.34,60.73-23.6,90.55-36.72l-10.91-1.41c16.15,20.86,35.78,38.81,57.76,53.38l-4.14-10.16c-5.97,23.09-9.63,46.77-11.04,70.58,1.49-2.59,2.97-5.18,4.46-7.77-3,1.62-6.03,3.16-9.1,4.63-1.28,.61-2.56,1.2-3.86,1.79-.77,.35-1.55,.7-2.33,1.04-.28,.12-3.38,1.44-1.76,.76-6.02,2.51-12.14,4.79-18.31,6.93-12.64,4.38-25.47,8.17-38.22,12.18-24.87,7.81-49.45,16.54-73.67,26.16-48.91,19.43-96.42,42.33-141.98,68.7-25.44,14.72-50.25,30.5-74.38,47.28-2.39,1.66-3.9,3.65-4.3,6.57-.35,2.61,.33,5.78,2.48,7.56,10.96,9.1,22.73,17.11,35.39,23.67l-1.82-14.14c-.96,.84-1.93,1.67-2.92,2.48-.47,.38-2.62,2.05-1.18,.96-2.03,1.54-4.11,3.02-6.24,4.42-3.94,2.59-8.05,4.93-12.29,7-1.03,.5-2.07,.99-3.12,1.47-.57,.26-3.08,1.31-1.36,.61-2.36,.96-4.75,1.86-7.17,2.68-4.47,1.5-9.04,2.72-13.67,3.66-1.12,.23-2.25,.44-3.38,.63-.5,.09-1.01,.17-1.51,.25-.01,0-2.49,.36-1.07,.17s-1.07,.12-1.08,.13c-.51,.06-1.01,.11-1.52,.16-1.27,.13-2.54,.23-3.81,.32-4.85,.32-9.84,.45-14.68-.09,1.88,.21-.87-.22-1.51-.39,.03,0-2.39-.83-1.15-.32s-.97-.55-.97-.55c-.43-.25-.85-.53-1.27-.81-1.4-.92-.24-.2,.02,.03-.94-.85-1.88-1.7-2.75-2.63-1.58-1.67-3.04-3.47-4.45-5.28,1.08,1.4,.03,.02-.23-.34-.38-.52-.76-1.04-1.14-1.57-.75-1.05-1.48-2.12-2.19-3.19-2.62-3.99-4.98-8.15-7.06-12.44-.51-1.04-1-2.1-1.47-3.16-.21-.47-.42-.94-.62-1.42,.72,1.68,.04,.07-.13-.35-.91-2.28-1.75-4.58-2.51-6.91-1.52-4.66-2.72-9.42-3.6-14.25-.18-1.02-.34-2.04-.51-3.05-.42-2.46,.13,1.24-.05-.29-.06-.51-.13-1.02-.18-1.54-.26-2.34-.47-4.7-.54-7.06-.03-1.15-.03-2.31,.02-3.47,.02-.46,.06-.92,.09-1.38,.11-1.76-.1,.14-.07,.34-.12-.98,.56-2.35,.77-3.29,.09-.41,.29-1.74-.2,.29,.15-.62,.65-1.18,.92-1.75,.63-1.33-.14,.45-.26,.21-.05-.09,.79-.84,.91-.99,1.31-1.62-.9,.4,.12-.18,.51-.29,1.04-.6,1.53-.92,.33-.22,1.58-.7-.19,0,.45-.18,.91-.34,1.36-.5,1.28-.43,2.59-.76,3.9-1.05,10.22-2.28,20.59-3.98,30.86-6.07,41.91-8.54,83.68-18.9,123.24-35.44,39.71-16.59,76.26-39.2,111.66-63.5,8.69-5.97,17.32-12.02,25.94-18.1,8.1-5.71,17.3-11.1,23.73-18.76,6.95-8.28,10.08-18.42,9.13-29.2-.87-9.89-3.95-19.27-6.03-28.93-.21-.98-.41-1.96-.59-2.95-.09-.49-.18-.98-.26-1.47,0-.04-.35-2.46-.17-1.01s-.09-.97-.1-1.01c-.05-.49-.09-.98-.12-1.47-.08-1.22-.11-2.44-.11-3.66,.02-4.71-4.15-9.22-9-9s-8.98,3.95-9,9c-.04,10.11,2.83,19.87,5.23,29.59,.56,2.28,1.09,4.58,1.54,6.89,.18,.94,.63,2.25,.55,3.23,.14-1.66-.1-.9-.05-.26,.06,.71,.14,1.41,.19,2.12,.15,2.22,.06,4.4-.1,6.61-.1,1.39,.51-2.16-.03,0-.11,.45-.18,.91-.29,1.35-.27,1.14-.65,2.23-1.03,3.34,.71-2.07-.06,.09-.25,.48-.22,.44-.46,.87-.7,1.29s-.5,.84-.77,1.24c0,.01-1.38,1.97-.57,.87s-.67,.77-.68,.79c-.32,.37-.65,.73-.99,1.08-.93,.98-1.91,1.91-2.92,2.81-.84,.74-1.7,1.45-2.56,2.14-1.31,1.06-.21,.16,.05-.04-.5,.37-1,.74-1.5,1.11-2.13,1.56-4.3,3.07-6.46,4.59-8.84,6.25-17.69,12.48-26.59,18.64-35.64,24.63-72.45,48.21-112.49,65.07,.36-.15,1.41-.59-.24,.1-.53,.22-1.06,.44-1.6,.66-1.33,.55-2.67,1.09-4,1.62-2.67,1.07-5.36,2.11-8.05,3.13-5.12,1.93-10.27,3.77-15.44,5.52-10.37,3.51-20.84,6.69-31.39,9.61-21.15,5.85-42.58,10.64-64.08,15-5.38,1.09-10.76,2.15-16.15,3.19-5.01,.97-10.17,1.67-15.09,3.07-6.02,1.72-11.23,4.84-14.89,9.99-3.15,4.44-4.3,9.94-4.66,15.28-.32,4.63,.2,9.32,.81,13.91,.71,5.41,1.67,10.76,3.1,16.03,2.69,9.92,6.74,19.61,11.9,28.51,2.72,4.69,5.82,9.11,9.15,13.39s6.8,8.22,11.3,11.31c8.87,6.09,21.47,5.33,31.71,4.38,20.37-1.89,40.31-8.63,57.29-20.12,4.43-3,8.68-6.3,12.71-9.82,4.25-3.71,3.1-11.58-1.82-14.14-5.85-3.03-11.54-6.35-17.04-9.98-2.69-1.78-5.33-3.62-7.93-5.54-.68-.5-1.35-1.01-2.02-1.51-1.51-1.14,.78,.64-.84-.65-1.31-1.05-2.62-2.1-3.92-3.18l-1.82,14.14c24.92-17.33,50.58-33.6,76.9-48.74,26.44-15.2,53.53-29.26,81.18-42.14,6.91-3.22,13.86-6.36,20.84-9.43,3.43-1.51,6.86-2.99,10.3-4.46,.89-.38,1.79-.76,2.68-1.14,.08-.03,1.34-.57,.46-.19s.38-.16,.46-.19c1.79-.75,3.58-1.5,5.37-2.24,14.09-5.83,28.3-11.36,42.63-16.57,14.33-5.22,28.77-10.12,43.31-14.71s29.67-8.99,44.25-14.24c7.8-2.81,15.51-5.9,23.05-9.34,3.61-1.65,7.18-3.39,10.68-5.26,3.74-1.99,5.62-4.71,5.98-9.03,.18-2.09,.27-4.18,.43-6.27,.31-4.03,.69-8.05,1.14-12.07,.23-2.08,.49-4.16,.75-6.24,0-.05,.2-1.51,.08-.58s.08-.54,.08-.58c.17-1.19,.34-2.37,.52-3.55,1.23-8.14,2.74-16.23,4.53-24.27,.88-3.94,1.83-7.87,2.84-11.78s-.75-7.92-4.14-10.16c-2.66-1.77-5.3-3.58-7.89-5.45-1.3-.94-2.58-1.88-3.86-2.85-.12-.09-2.21-1.69-.72-.53-.63-.49-1.26-.98-1.89-1.48-4.91-3.89-9.65-7.97-14.23-12.24-9.26-8.63-17.78-18.02-25.53-28.02-2.61-3.37-7.55-2.88-10.91-1.41-7.14,3.14-14.3,6.23-21.48,9.27-.99,.42-1.11,.47-.34,.14-.55,.23-1.11,.47-1.66,.7-.83,.35-1.66,.7-2.49,1.04-1.66,.69-3.32,1.38-4.99,2.07-3.74,1.55-7.49,3.08-11.24,4.6-14.6,5.91-29.28,11.6-44.05,17.08-4.4,1.63-7.87,6.17-6.29,11.07,1.4,4.31,6.35,8.04,11.07,6.29h0Z"/><path d="M60.39,343.42c20.41-15.09,42.46-27.74,64.88-39.56,22.41-11.81,45.22-22.84,67.49-34.91,21.54-11.68,42.42-24.51,63.32-37.29s41.66-25.37,63.28-36.67c10.77-5.63,21.72-10.86,32.88-15.66,.93-.4-.76,.32-.75,.32,.37-.15,.75-.31,1.12-.47,.65-.27,1.31-.54,1.96-.81,1.4-.57,2.81-1.14,4.21-1.7,2.82-1.11,5.65-2.19,8.5-3.23,5.7-2.08,11.47-4,17.28-5.74,2.92-.87,5.85-1.7,8.8-2.48l-6.94-16.45c-20.98,15.74-43.24,29.67-65.99,42.69-22.82,13.06-46.13,25.23-69.32,37.6-22.84,12.18-45.44,24.75-67.62,38.09-21.65,13.02-43.16,26.35-65.63,37.95-5.5,2.84-11.05,5.57-16.68,8.16-2.85,1.31-5.71,2.59-8.59,3.82-.31,.13-1.54,.67-.32,.14s-.01,0-.32,.13c-.65,.27-1.3,.54-1.96,.81-1.49,.61-2.99,1.21-4.49,1.8-11.64,4.54-23.58,8.33-35.78,11.06-2.97,.66-5.95,1.26-8.95,1.8l4.79,17.36c24.06-10.05,48.02-20.35,71.86-30.92s46.55-20.95,69.65-31.81c23.2-10.91,46.28-22.07,69.24-33.49,22.85-11.37,45.58-22.99,68.18-34.86s45.06-23.99,67.39-36.35c2.75-1.53,5.51-3.05,8.26-4.59,4.12-2.29,5.83-8.29,3.23-12.31s-7.91-5.68-12.31-3.23c-22.2,12.37-44.53,24.5-67,36.38-22.56,11.93-45.26,23.62-68.08,35.05-22.72,11.38-45.57,22.52-68.53,33.4-23.07,10.93-46.25,21.61-69.56,32.02-11.6,5.19-23.23,10.31-34.88,15.37-5.78,2.51-11.56,5-17.35,7.47-3,1.28-6,2.56-9,3.83-1.35,.57-2.69,1.14-4.04,1.71-.31,.13-.62,.26-.93,.39-1.51,.64,.03,0,.29-.12-.82,.37-1.66,.7-2.49,1.05-2.9,1.22-5.81,2.44-8.71,3.65-2.27,.95-4.09,1.93-5.38,4.14-1.13,1.93-1.61,4.77-.91,6.94,1.61,4.99,6.09,7.18,11.07,6.29,25.26-4.54,49.39-13.8,72.4-25.02,22.7-11.07,44.33-24.18,65.94-37.23,22.14-13.37,44.51-26.25,67.29-38.5s46.7-24.65,69.73-37.55,45.34-26.39,66.63-41.71c2.67-1.92,5.33-3.88,7.96-5.85,3.63-2.72,5.56-6.79,3.68-11.24-1.73-4.11-6.24-6.37-10.62-5.21-24.03,6.38-47.14,15.93-69.36,27.02-21.89,10.92-42.94,23.42-63.83,36.13-20.96,12.75-41.77,25.75-63.19,37.72-22.17,12.39-45.01,23.51-67.56,35.18s-44.8,23.89-65.6,38.42c-2.6,1.82-5.17,3.67-7.72,5.55-1.95,1.44-3.47,2.95-4.14,5.38-.59,2.15-.33,5.02,.91,6.94,2.41,3.74,8.26,6.22,12.31,3.23h0Z"/><path d="M233.82,383c18.82,8.15,37.63,16.29,56.45,24.44,18.74,8.11,37.48,16.23,56.21,24.34,9.37,4.06,18.74,8.11,28.11,12.17,4.72,2.05,9.45,4.09,14.17,6.14,2.35,1.02,4.7,2.04,7.05,3.05,2.75,1.18,5.53,2.48,8.45,3.19,3.63,.88,6.97,.92,10.63,.36,2.94-.45,5.67-1.66,8.37-2.86,4.61-2.05,9.12-4.38,13.66-6.58,9.2-4.46,18.39-8.91,27.59-13.37,9.2-4.46,18.39-8.91,27.59-13.37,4.57-2.22,9.42-4.93,11.75-9.71,.94-1.92,1.42-3.55,1.7-5.63,.3-2.21,.11-4.1-.24-6.32-.36-2.35-1.13-4.61-1.67-6.92s-.97-4.74-1.3-7.14l.32,2.39c-2.12-16.32,.54-32.71,2.33-48.93s2.59-34.01,2.12-51.05c-.27-9.68-.93-19.34-1.96-28.97-.31-2.94-1.15-5.22-3.55-7.07-2.26-1.75-5.05-2.36-7.85-1.61-25.33,6.79-50.65,13.58-75.98,20.36-7.12,1.91-14.24,3.82-21.35,5.72-4.71,1.26-7.56,6.39-6.29,11.07,3.41,12.56,5.99,25.34,7.73,38.24l-.32-2.39c2.24,16.82,3.04,33.82,2.37,50.78l9-9c-1.33-.15-2.66-.31-3.98-.48l2.39,.32c-13.7-1.86-27.1-5.54-39.85-10.88l2.15,.91c-11.09-4.69-21.62-10.61-31.36-17.7-2.4-1.75-6.67-1.65-9.08,0-12.21,8.35-25.23,15.45-38.84,21.22l2.15-.91c-11.24,4.74-22.84,8.55-34.7,11.39-4.58,1.1-7.75,6.55-6.29,11.07,1.54,4.77,6.16,7.46,11.07,6.29,21.17-5.07,41.7-13.25,60.59-24.05,5.16-2.95,10.19-6.11,15.1-9.47h-9.08c17.75,12.91,38.38,22.19,59.78,27.04,6.58,1.49,13.26,2.52,19.96,3.25,2.06,.22,5-1.15,6.36-2.64,1.65-1.8,2.54-3.9,2.64-6.36,.95-24.09-1.09-48.3-5.82-71.93-1.31-6.54-2.85-13.04-4.6-19.47-2.1,3.69-4.19,7.38-6.29,11.07,25.33-6.79,50.65-13.58,75.98-20.36,7.12-1.91,14.24-3.82,21.35-5.72l-11.39-8.68c2.04,19.09,2.6,38.32,1.65,57.5-.47,9.41-1.35,18.77-2.45,28.13s-2.23,18.37-2.45,27.62c-.12,5.09,.06,10.18,.69,15.23,.4,3.2,.86,6.39,1.57,9.54,.56,2.47,1.38,4.89,1.78,7.39l-.32-2.39c.12,.92,.15,1.81,.08,2.73l.32-2.39c-.1,.74-.28,1.42-.56,2.11l.91-2.15c-.26,.56-.57,1.08-.94,1.58l1.41-1.82c-.55,.68-1.17,1.27-1.85,1.82l1.82-1.41c-1.78,1.34-3.8,2.29-5.8,3.26-2.47,1.2-4.95,2.4-7.42,3.6-5.02,2.43-10.05,4.87-15.07,7.3-10.05,4.87-20.09,9.74-30.14,14.61-5.6,2.71-11.15,5.63-16.86,8.1l2.15-.91c-1.88,.79-3.78,1.42-5.8,1.7l2.39-.32c-1.26,.14-2.49,.12-3.75-.03l2.39,.32c-2.54-.39-4.92-1.27-7.28-2.26l2.15,.91c-21.28-9.06-42.45-18.38-63.67-27.57-21.1-9.14-42.2-18.27-63.3-27.41-11.97-5.18-23.93-10.36-35.9-15.54-2.31-1-4.4-1.6-6.94-.91-2.09,.57-4.35,2.19-5.38,4.14-1.1,2.09-1.66,4.62-.91,6.94,.67,2.07,2.04,4.47,4.14,5.38h0Z"/><path d="M127.66,483.56c17.72,10.49,35.44,20.99,53.15,31.48,8.78,5.2,17.56,10.4,26.34,15.6l13.29,7.87c4.34,2.57,8.61,5.37,13.08,7.71,3.73,1.95,7.77,2.92,11.93,1.84,2.69-.7,4.87-2.24,7.07-3.83,3.69-2.65,7.43-5.22,11.21-7.74,7.56-5.04,15.28-9.84,23.08-14.52,15.53-9.33,31.35-18.17,46.89-27.49,16.09-9.65,31.77-19.9,46.58-31.45,1.76-1.37,3.5-2.76,5.23-4.18,4.41-3.61,2.95-11.63-1.82-14.14-8.49-4.45-16.98-8.9-25.47-13.35-4.5-2.36-8.94-4.87-13.69-6.68-5.45-2.07-11.41-1.85-16.98-.37-4.53,1.21-8.95,2.95-13.39,4.48-4.6,1.59-9.2,3.18-13.8,4.76-9.03,3.12-18.06,6.23-27.09,9.35-5.11,1.76-10.22,3.53-15.33,5.29-4.29,1.48-8.58,3-13.09,3.65l2.39-.32c-2.04,.26-4.08,.34-6.13,.09l2.39,.32c-1.31-.19-2.56-.52-3.78-1.02l2.15,.91c-.98-.44-1.88-.97-2.74-1.61l1.82,1.41c-1.16-.93-2.14-2.01-3.05-3.19l1.41,1.82c-2.27-2.99-4.2-6.44-7.09-8.88-2.24-1.89-4.7-3.47-7.59-4.17-3.33-.8-6.6-.62-9.93,.08-4.37,.92-8.62,2.83-12.82,4.33-4.43,1.58-8.86,3.17-13.29,4.75-17.71,6.33-35.43,12.66-53.14,18.99-10.05,3.59-20.1,7.18-30.15,10.77-2.24,.8-4.15,2.03-5.38,4.14-1.13,1.93-1.61,4.77-.91,6.94,1.41,4.36,6.32,7.98,11.07,6.29,28.96-10.35,57.91-20.7,86.87-31.05,4.09-1.46,8.18-2.92,12.26-4.38,3.8-1.36,7.66-3.1,11.68-3.65l-2.39,.32c.95-.1,1.86-.11,2.81-.01l-2.39-.32c.75,.12,1.45,.3,2.16,.57l-2.15-.91c.76,.33,1.44,.74,2.11,1.24l-1.82-1.41c1.02,.82,1.89,1.77,2.7,2.8l-1.41-1.82c2.18,2.83,4.02,6,6.59,8.5,3.05,2.96,7.02,5.15,11.23,5.87,7.97,1.37,15.62-.64,23.12-3.23,15.84-5.47,31.69-10.94,47.53-16.41,4.43-1.53,8.86-3.06,13.29-4.59s8.92-3.4,13.6-4.06l-2.39,.32c1.53-.18,3.03-.2,4.56,0l-2.39-.32c1.73,.27,3.36,.79,4.97,1.45l-2.15-.91c6.11,2.61,11.92,6.08,17.8,9.16,6.11,3.2,12.22,6.41,18.33,9.61l-1.82-14.14c-2.1,1.71-4.22,3.4-6.36,5.05l1.82-1.41c-15.76,12.16-32.67,22.72-49.79,32.83-17.11,10.1-34.47,19.79-51.33,30.32-4.73,2.96-9.42,5.98-14.05,9.09-2.31,1.56-4.61,3.13-6.89,4.74s-4.37,3.47-6.84,4.58l2.15-.91c-.54,.21-1.07,.35-1.64,.42l2.39-.32c-.47,.02-.89,0-1.36-.05l2.39,.32c-.61-.12-1.17-.3-1.75-.53l2.15,.91c-3.62-1.61-7-3.99-10.4-6l-10.26-6.08-20.98-12.43c-13.83-8.19-27.66-16.38-41.5-24.58-7.93-4.69-15.85-9.39-23.78-14.08-4.05-2.4-10.05-1.05-12.31,3.23s-1.1,9.75,3.23,12.31h0Z"/></svg>