<?xml version="1.0" encoding="UTF-8"?><svg id="_图层_1" xmlns="http://www.w3.org/2000/svg" viewBox="0 0 318.52 264.22"><path d="M8.42,13.74c22.65,21.06,45.96,41.4,69.68,61.26,23.72,19.86,47.84,39.25,72.11,58.44,13.62,10.77,27.28,21.47,40.95,32.16,1.85,1.45,4.35,1.8,6.15,0s1.56-4.39,0-6.15c-21.55-24.28-43.59-48.13-66.17-71.46-20.21-20.88-41.11-41.21-64.54-58.48C53.6,19.92,39.81,11.39,25.18,4.51c-1.96-.92-4.24-.71-5.61,1.12s-1.15,4.06,.34,5.71c17.16,19.06,36.59,35.9,56.74,51.71s41.57,31.08,62.29,46.7c11.37,8.58,22.55,17.31,33.56,26.64,1.79,1.52,4.4,1.76,6.15,0s1.49-4.33,0-6.15c-13.67-16.75-29.76-31.28-46.14-45.31-16.28-13.95-32.95-27.52-48.11-42.71-4.27-4.27-8.41-8.67-12.38-13.23s-7.47-8.93-10.91-13.69c-1.37-1.9-3.79-2.83-5.95-1.56s-2.62,3.85-1.56,5.95c3.89,7.76,9.55,14.51,15.54,20.72s12.85,12.66,19.54,18.7c13.72,12.38,28.06,24.05,42.41,35.69,29.54,23.95,59.42,47.47,89.43,70.82,16.99,13.23,34.03,26.41,51.06,39.58,1.86,1.44,4.34,1.81,6.15,0,1.65-1.65,1.69-4.51,0-6.15-14.53-14.13-29.97-27.28-45.94-39.75s-32.82-24.56-49.7-36.19-33.59-22.71-50.4-34.03-33.67-22.85-50.09-34.86c-16.27-11.9-31.89-24.12-47.14-37.52-1.9-1.67-3.78-3.35-5.66-5.05-1.74-1.58-4.43-1.72-6.15,0s-1.5,4.33,0,6.15c14.29,17.38,29.74,33.79,45.94,49.39,16.16,15.56,33.05,30.32,50.33,44.62,17.59,14.55,35.57,28.6,53.64,42.53s35.62,27.27,53.18,41c17.83,13.94,35.48,28.12,52.63,42.88,2.1,1.81,4.19,3.63,6.28,5.45,1.77,1.55,4.41,1.74,6.15,0s1.47-4.31,0-6.15c-14.91-18.6-32.72-34.58-51.37-49.34-18.92-14.97-38.69-28.82-57.85-43.47-2.52-1.93-4.77-3.67-7.44-5.78s-5.23-4.16-7.82-6.28c-5.23-4.28-10.36-8.67-15.37-13.21l-5.27,6.83c18.48,12.54,36.7,25.48,54.63,38.8s35.13,26.7,52.25,40.61c9.79,7.96,19.49,16.03,29.09,24.22,1.79,1.52,4.4,1.75,6.15,0,1.61-1.61,1.73-4.56,0-6.15-15.56-14.35-31.12-28.69-46.69-43.04-15.56-14.35-31.12-28.69-46.69-43.04-8.83-8.14-17.66-16.28-26.49-24.42l-5.27,6.83c18.08,13.67,35.89,27.7,53.43,42.07,17.61,14.42,34.93,29.19,51.97,44.28,9.61,8.51,19.12,17.12,28.54,25.84,1.72,1.6,4.45,1.71,6.15,0s1.7-4.52,0-6.15c-23.73-22.79-49.27-43.71-76.27-62.5-7.52-5.24-15.17-10.3-22.91-15.2-4.14-2.62-8.96,3.5-5.27,6.83,25.43,23,52.73,43.97,81.53,62.58,8.14,5.26,16.41,10.33,24.78,15.21,4.85,2.83,9.23-4.69,4.39-7.51-29.17-17-57-36.33-82.97-57.76-7.34-6.06-14.53-12.28-21.59-18.66l-5.27,6.83c27.25,17.24,52.99,36.46,77.18,57.73,6.88,6.05,13.63,12.26,20.24,18.61l6.15-6.15c-16.84-15.58-33.99-30.84-51.42-45.76-17.44-14.92-35.16-29.5-53.16-43.73-10.28-8.13-20.66-16.15-31.11-24.05-1.71-1.29-4.45-.44-5.61,1.12-1.25,1.67-1.28,4.22,.34,5.71,15.56,14.35,31.12,28.69,46.69,43.04,15.56,14.35,31.12,28.69,46.69,43.04,8.83,8.14,17.66,16.28,26.49,24.42l6.15-6.15c-17.06-14.56-34.44-28.76-52.11-42.57s-35.93-27.48-54.32-40.63c-10.34-7.39-20.77-14.65-31.29-21.79-4.08-2.77-8.93,3.52-5.27,6.83,17.95,16.24,37.48,30.6,56.95,44.95,19.19,14.14,37.82,27.86,55.45,44.04,9.83,9.03,19.1,18.67,27.45,29.09l6.15-6.15c-17.02-14.91-34.57-29.19-52.35-43.19-17.91-14.1-36.03-27.92-54.1-41.81s-35.45-27.38-52.87-41.61c-17.38-14.19-34.42-28.81-50.76-44.19-16.38-15.41-32.05-31.57-46.61-48.72-1.79-2.11-3.57-4.24-5.32-6.37l-6.15,6.15c15.21,13.74,31.22,26.56,47.64,38.82s33.02,23.74,49.86,35.14c16.79,11.37,33.69,22.56,50.44,33.99,16.77,11.44,33.39,23.13,49.53,35.44,7.7,5.88,15.69,12.25,23.35,18.67s15.29,13.17,22.63,20.09c1.84,1.73,3.66,3.48,5.47,5.24l6.15-6.15c-30.08-23.27-60.16-46.54-90.02-70.09-14.93-11.77-29.8-23.62-44.6-35.56s-28.89-23.33-42.83-35.58c-7.71-6.78-15.26-13.74-22.51-21.02-6.58-6.61-12.5-13.16-16.68-21.51l-7.51,4.39c12.81,17.73,28.42,33.04,44.8,47.45,16.31,14.35,33.31,27.92,49.15,42.81,8.84,8.31,17.29,17.04,24.96,26.45l6.15-6.15c-19.8-16.78-40.75-32.13-61.63-47.54s-40.83-30.25-60.11-47.23c-10.82-9.53-21.19-19.57-30.84-30.29l-5.27,6.83c25.99,12.23,48.74,29.34,69.84,48.46,22.38,20.29,43.1,42.43,63.66,64.53,12.46,13.38,24.75,26.91,36.88,40.59l6.15-6.15c-24.37-19.06-48.72-38.16-72.82-57.58-24.08-19.41-47.91-39.14-71.23-59.47C40.19,30.99,27.28,19.4,14.57,7.59c-1.72-1.6-4.45-1.7-6.15,0s-1.73,4.55,0,6.15h0Z"/><path d="M256.34,6.68c-13.8,10.35-27.47,20.88-41,31.59-13.36,10.58-26.57,21.33-39.64,32.26-13.07,10.93-25.99,22.04-38.76,33.32s-25.5,22.83-38.02,34.5-24.77,23.4-36.91,35.35c-1.5,1.48-3.01,2.96-4.5,4.45-1.62,1.6-1.73,4.57,0,6.15,1.84,1.69,4.31,1.59,6.15,0,3.08-2.66,6.22-5.25,9.41-7.78,1.7-1.35,2.9-2.28,4.29-3.34,1.62-1.23,3.24-2.45,4.88-3.66,6.55-4.83,13.25-9.45,20.03-13.96,13.58-9.04,27.47-17.62,41.16-26.49s27.11-18.12,40.04-28.07,25.57-20.53,37.62-31.64,23.28-22.46,34.13-34.45c1.36-1.5,2.7-3.01,4.04-4.52,1.45-1.64,1.71-3.94,.34-5.71s-3.63-2.08-5.61-1.12c-17.95,8.72-33.38,21.63-48.6,34.34-16.68,13.93-33.34,27.87-50,41.83s-33.29,27.93-49.91,41.92-31.84,26.49-47.38,40.18c-14.68,12.93-28.68,26.64-40.51,42.26-1.42,1.88-2.81,3.79-4.16,5.72-1.06,1.51-.65,4.05,.68,5.27s3.68,1.83,5.27,.68c17.39-12.64,34.73-25.34,52.02-38.11s34.26-25.41,51.32-38.22c15.45-11.6,30.84-23.28,45.86-35.43s29.16-24.33,42.8-37.53c13.64-13.2,26.51-27.21,38.13-42.23,1.57-2.03,3.13-4.07,4.66-6.13,1.36-1.83,.36-4.94-1.56-5.95-2.28-1.2-4.5-.4-5.95,1.56-.7,.94-1.4,1.88-2.11,2.81-.35,.47-.71,.93-1.06,1.4-.18,.23-.36,.46-.53,.7,.28-.36,0,0-.13,.16-1.48,1.9-2.98,3.79-4.5,5.67-2.94,3.63-5.96,7.2-9.04,10.71-6.21,7.08-12.68,13.92-19.36,20.56-13.4,13.33-27.6,25.82-42.2,37.82-7.32,6.02-14.75,11.91-22.24,17.72-.46,.36-.93,.72-1.39,1.08-.23,.18-.46,.36-.7,.54-.07,.05-.78,.6-.43,.33,.31-.24-.26,.2-.26,.2-.23,.18-.47,.36-.7,.54-.58,.45-1.16,.9-1.75,1.34-1.86,1.43-3.73,2.86-5.6,4.29-3.74,2.85-7.48,5.68-11.23,8.51-16.75,12.62-33.57,25.15-50.43,37.63s-34.34,25.31-51.59,37.87c-2.14,1.56-4.28,3.11-6.42,4.67l5.95,5.95c1.39-1.99,2.82-3.96,4.29-5.9,.18-.23,.36-.47,.54-.7,.3-.39,.05-.07,0,0,.36-.47,.72-.93,1.09-1.39,.82-1.04,1.65-2.07,2.49-3.09,2.99-3.64,6.11-7.17,9.32-10.61,6.55-7.02,13.48-13.66,20.61-20.1,15.1-13.64,30.89-26.54,46.45-39.65,16.49-13.89,33-27.76,49.52-41.61s33.18-27.8,49.79-41.68c7.71-6.44,15.37-12.96,23.3-19.14,.24-.18,.47-.37,.71-.55-.15,.12-.51,.39,.19-.15,.42-.32,.83-.64,1.25-.96,1.02-.77,2.04-1.54,3.07-2.29,1.99-1.47,4.01-2.9,6.05-4.3,4.01-2.74,8.14-5.33,12.39-7.7,2.1-1.16,4.22-2.27,6.38-3.31l-5.27-6.83c-10.72,12.11-21.98,23.74-33.74,34.84-11.76,11.1-24.03,21.66-36.74,31.65-.77,.6-1.53,1.2-2.3,1.8-.9,.7-1.04,.81-2.14,1.65-1.55,1.18-3.1,2.36-4.66,3.52-3.3,2.47-6.62,4.9-9.97,7.29-6.62,4.72-13.36,9.27-20.16,13.73-13.65,8.94-27.54,17.51-41.18,26.46s-27.33,18.52-40.04,29.03c-1.57,1.3-3.12,2.61-4.67,3.94l6.15,6.15c12.05-11.93,24.26-23.71,36.62-35.31s25-23.15,37.73-34.48,25.49-22.37,38.46-33.3,26.2-21.78,39.52-32.41,26.12-20.57,39.68-30.8c1.68-1.27,3.37-2.54,5.06-3.8,1.82-1.36,2.93-3.82,1.56-5.95-1.16-1.8-4.01-3.02-5.95-1.56h0Z"/><path d="M52.77,38.92c13.93,12.35,28.03,24.51,42.28,36.49s28.67,23.76,43.24,35.35c14.74,11.72,29.63,23.25,44.67,34.58s29.89,22.2,45.06,33c15.16,10.8,30.47,21.4,45.92,31.79,1.95,1.31,3.9,2.62,5.85,3.92s4.9,.43,5.95-1.56c1.16-2.19,.46-4.6-1.56-5.95-15.48-10.34-30.83-20.88-46.03-31.63s-30.13-21.61-44.98-32.71c-14.98-11.2-29.03-22-43.58-33.5s-28.94-23.18-43.17-35.06-28.31-23.94-42.22-36.19c-1.76-1.55-3.52-3.1-5.28-4.66s-4.5-1.8-6.15,0c-1.52,1.65-1.82,4.54,0,6.15h0Z"/><path d="M18.18,34.03c22.65,21.06,45.96,41.4,69.68,61.26s47.84,39.25,72.11,58.44c13.62,10.77,27.28,21.47,40.95,32.16,1.85,1.45,4.35,1.8,6.15,0s1.56-4.39,0-6.15c-21.55-24.28-43.59-48.13-66.17-71.46-20.21-20.88-41.11-41.21-64.54-58.48-13.01-9.58-26.8-18.11-41.43-24.99-1.96-.92-4.24-.71-5.61,1.12s-1.15,4.06,.34,5.71c17.16,19.06,36.59,35.9,56.74,51.71s41.57,31.08,62.29,46.7c11.37,8.58,22.55,17.31,33.56,26.64,1.79,1.52,4.4,1.76,6.15,0s1.49-4.33,0-6.15c-13.67-16.75-29.76-31.28-46.14-45.31-16.28-13.95-32.95-27.52-48.11-42.71-4.27-4.27-8.41-8.67-12.38-13.23s-7.47-8.93-10.91-13.69c-1.37-1.9-3.79-2.83-5.95-1.56s-2.62,3.85-1.56,5.95c3.89,7.76,9.55,14.51,15.54,20.72s12.85,12.66,19.54,18.7c13.72,12.38,28.06,24.05,42.41,35.69,29.54,23.95,59.42,47.47,89.43,70.82,16.99,13.23,34.03,26.41,51.06,39.58,1.86,1.44,4.34,1.81,6.15,0,1.65-1.65,1.69-4.51,0-6.15-14.53-14.13-29.97-27.28-45.94-39.75s-32.82-24.56-49.7-36.19c-16.69-11.5-33.59-22.71-50.4-34.03s-33.67-22.85-50.09-34.86c-16.27-11.9-31.89-24.12-47.14-37.52-1.9-1.67-3.78-3.35-5.66-5.05-1.74-1.58-4.43-1.72-6.15,0s-1.5,4.33,0,6.15c14.29,17.38,29.74,33.79,45.94,49.39s33.05,30.32,50.33,44.62c17.59,14.55,35.57,28.6,53.64,42.53s35.62,27.27,53.18,41,35.48,28.12,52.63,42.88c2.1,1.81,4.19,3.63,6.28,5.45,1.77,1.55,4.41,1.74,6.15,0s1.47-4.31,0-6.15c-14.91-18.6-32.72-34.58-51.37-49.34s-38.69-28.82-57.85-43.47c-2.52-1.93-4.77-3.67-7.44-5.78s-5.23-4.16-7.82-6.28c-5.23-4.28-10.36-8.67-15.37-13.21l-5.27,6.83c18.48,12.54,36.7,25.48,54.63,38.8s35.13,26.7,52.25,40.61c9.79,7.96,19.49,16.03,29.09,24.22,1.79,1.52,4.4,1.75,6.15,0,1.61-1.61,1.73-4.56,0-6.15-15.56-14.35-31.12-28.69-46.69-43.04s-31.12-28.69-46.69-43.04c-8.83-8.14-17.66-16.28-26.49-24.42l-5.27,6.83c18.08,13.67,35.89,27.7,53.43,42.07,17.61,14.42,34.93,29.19,51.97,44.28,9.61,8.51,19.12,17.12,28.54,25.84,1.72,1.6,4.45,1.71,6.15,0s1.7-4.52,0-6.15c-23.73-22.79-49.27-43.71-76.27-62.5-7.52-5.24-15.17-10.3-22.91-15.2-4.14-2.62-8.96,3.5-5.27,6.83,25.43,23,52.73,43.97,81.53,62.58,8.14,5.26,16.41,10.33,24.78,15.21,4.85,2.83,9.23-4.69,4.39-7.51-29.17-17-57-36.33-82.97-57.76-7.34-6.06-14.53-12.28-21.59-18.66l-5.27,6.83c27.25,17.24,52.99,36.46,77.18,57.73,6.88,6.05,13.63,12.26,20.24,18.61l6.15-6.15c-16.84-15.58-33.99-30.84-51.42-45.76-17.44-14.92-35.16-29.5-53.16-43.73-10.28-8.13-20.66-16.15-31.11-24.05-1.71-1.29-4.45-.44-5.61,1.12-1.25,1.67-1.28,4.22,.34,5.71,15.56,14.35,31.12,28.69,46.69,43.04s31.12,28.69,46.69,43.04c8.83,8.14,17.66,16.28,26.49,24.42l6.15-6.15c-17.06-14.56-34.44-28.76-52.11-42.57-17.82-13.93-35.93-27.48-54.32-40.63-10.34-7.39-20.77-14.65-31.29-21.79-4.08-2.77-8.93,3.52-5.27,6.83,17.95,16.24,37.48,30.6,56.95,44.95,19.19,14.14,37.82,27.86,55.45,44.04,9.83,9.03,19.1,18.67,27.45,29.09l6.15-6.15c-17.02-14.91-34.57-29.19-52.35-43.19-17.91-14.1-36.03-27.92-54.1-41.81-17.61-13.54-35.45-27.38-52.87-41.61-17.38-14.19-34.42-28.81-50.76-44.19-16.38-15.41-32.05-31.57-46.61-48.72-1.79-2.11-3.57-4.24-5.32-6.37l-6.15,6.15c15.21,13.74,31.22,26.56,47.64,38.82,16.3,12.16,33.02,23.74,49.86,35.14s33.69,22.56,50.44,33.99,33.39,23.13,49.53,35.44c7.7,5.88,15.69,12.25,23.35,18.67,7.73,6.48,15.29,13.17,22.63,20.09,1.84,1.73,3.66,3.48,5.47,5.24l6.15-6.15c-30.08-23.27-60.16-46.54-90.02-70.09-14.93-11.77-29.8-23.62-44.6-35.56s-28.89-23.33-42.83-35.58c-7.71-6.78-15.26-13.74-22.51-21.02-6.58-6.61-12.5-13.16-16.68-21.51l-7.51,4.39c12.81,17.73,28.42,33.04,44.8,47.45,16.31,14.35,33.31,27.92,49.15,42.81,8.84,8.31,17.29,17.04,24.96,26.45l6.15-6.15c-19.8-16.78-40.75-32.13-61.63-47.54-20.64-15.24-40.83-30.25-60.11-47.23-10.82-9.53-21.19-19.57-30.84-30.29l-5.27,6.83c25.99,12.23,48.74,29.34,69.84,48.46,22.38,20.29,43.1,42.43,63.66,64.53,12.46,13.38,24.75,26.91,36.88,40.59l6.15-6.15c-24.37-19.06-48.72-38.16-72.82-57.58-24.08-19.41-47.91-39.14-71.23-59.47-13.08-11.4-25.99-22.99-38.7-34.81-1.72-1.6-4.45-1.7-6.15,0s-1.73,4.55,0,6.15h0Z"/><path d="M62.53,59.2c13.93,12.35,28.03,24.51,42.28,36.49s28.67,23.76,43.24,35.35,29.63,23.25,44.67,34.58,29.89,22.2,45.06,33,30.47,21.4,45.92,31.79c1.95,1.31,3.9,2.62,5.85,3.92s4.9,.43,5.95-1.56c1.16-2.19,.46-4.6-1.56-5.95-15.48-10.34-30.83-20.88-46.03-31.63s-30.13-21.61-44.98-32.71c-14.98-11.2-29.03-22-43.58-33.5s-28.94-23.18-43.17-35.06c-14.23-11.88-28.31-23.94-42.22-36.19-1.76-1.55-3.52-3.1-5.28-4.66s-4.5-1.8-6.15,0c-1.52,1.65-1.82,4.54,0,6.15h0Z"/></svg>