<?xml version="1.0" encoding="UTF-8"?><svg id="_图层_1" xmlns="http://www.w3.org/2000/svg" viewBox="0 0 312.95 258.66"><path d="M295.05,10.45c-19.37,8.62-38.67,17.39-57.91,26.3s-38.17,17.88-57.14,27.04c-19.03,9.19-38,18.53-56.88,28.02-18.77,9.43-37.47,19.01-56.09,28.74s-37.28,19.66-55.8,29.71c-2.28,1.24-4.56,2.48-6.84,3.72-4.27,2.33-1.38,9.52,3.35,7.95,19.44-6.44,38.89-12.88,58.3-19.41,19.31-6.5,38.58-13.08,57.8-19.85,19.27-6.79,38.47-13.76,57.58-21.01,18.81-7.13,37.58-14.44,56.09-22.31,14.86-6.31,30.38-13.94,39.95-27.47,1.08-1.52,2.04-3.12,2.89-4.77,1.98-3.82-2.05-8.14-5.95-5.95-32.11,17.95-64.56,35.3-97.32,52.04-32.71,16.72-65.72,32.83-99.02,48.34-18.88,8.79-37.85,17.39-56.91,25.79l5.27,6.83c26.91-20.91,55.96-39.7,86.05-55.99,15.26-8.26,30.86-15.9,46.72-22.92,14.67-6.49,29.54-12.54,43.91-19.69,15.83-7.88,31.15-17.24,43.76-29.75,1.53-1.52,1.67-4.04,.34-5.71-1.23-1.54-3.85-2.44-5.61-1.12-27.01,20.18-56.7,36.39-86.66,51.73s-60.62,29.97-89.85,46.97c-16.19,9.42-31.95,19.59-46.8,31.02-1.42,1.09-2.36,2.44-2.08,4.34,.24,1.6,1.42,3.28,3.12,3.62,35.68,7.05,71.63,12.74,107.74,17.1,10.17,1.23,20.35,2.34,30.54,3.35v-8.7c-33.27,1.33-66.57,1.95-99.87,1.86-9.37-.03-18.74-.11-28.11-.25l1.16,8.55c19.79-5.07,39.72-9.62,59.75-13.64,20.18-4.05,40.47-7.56,60.84-10.53,11.26-1.64,22.54-3.11,33.85-4.41,2.33-.27,4.35-1.81,4.35-4.35,0-2.34-1.99-4.38-4.35-4.35-21.37,.25-42.75,.5-64.12,.75s-42.95,.5-64.42,.75c-12.08,.14-24.17,.28-36.25,.42-2.35,.03-4.35,1.98-4.35,4.35,0,2.51,2,4.16,4.35,4.35,21.14,1.73,42.31,3.05,63.5,3.94s42.61,1.36,63.93,1.4c2.97,0,5.95,0,8.92,0,2.33,0,5.21-.06,7.01,.28,1.07,.2,2.31,.54,2.87,.85,.2,.11,.4,.22,.59,.34,.54,.31-.56-.64,.23,.16,.14,.14,.28,.29,.42,.42,.47,.43-.29-.48,.06,.04,.16,.24,.66,1.23,.36,.48,.09,.23,.14,.47,.22,.71,.18,.49-.02,.29,.01-.08-.02,.17,.05,.37,0,.53-.16,.5-.01-.94-.06,.05,0,0,.18-.74,.07-.24-.08,.38,.48-.49-.13,.13l6.15,6.15c19.56-21.91,39.09-43.86,57.84-66.47,18.56-22.39,36.4-45.43,52.55-69.63,8.98-13.45,17.42-27.27,25.15-41.48l-8.11-2.2c-1.34,31.69-2.24,63.4-2.69,95.11-.45,31.81-.44,63.63,.02,95.44,.26,17.85,.66,35.7,1.2,53.54l6.55-3.76c-15.48-9.16-28.38-21.11-41.03-34.18s-24.38-26.53-37.74-38.61c-7.73-6.99-15.95-13.47-24.79-18.99-1.99-1.25-4.79-.42-5.95,1.56-1.22,2.08-.44,4.71,1.56,5.95,15.12,9.44,28,21.75,40.53,34.84s24.36,26.53,37.89,38.42c7.83,6.88,16.17,13.21,25.15,18.52,2.78,1.64,6.65-.44,6.55-3.76-.96-31.7-1.48-63.42-1.54-95.13-.06-31.81,.33-63.63,1.17-95.43,.47-17.85,1.09-35.69,1.85-53.53,.18-4.3-6.07-5.94-8.11-2.2-13.7,25.19-29.64,49.09-46.81,72.03-17.27,23.08-35.89,45.27-54.86,67.04-10.74,12.33-21.62,24.53-32.5,36.73-1.56,1.75-1.73,4.43,0,6.15s4.48,1.66,6.15,0c3.91-3.89,3.1-9.7-.27-13.63s-9.2-4.78-14.13-4.88c-11.24-.24-22.51,0-33.75-.18-22.6-.34-45.19-1.17-67.76-2.47-12.76-.74-25.51-1.63-38.25-2.68v8.7c21.37-.25,42.75-.5,64.12-.75l64.42-.75,36.25-.42v-8.7c-20.76,2.4-41.46,5.32-62.07,8.8-20.37,3.44-40.65,7.43-60.81,11.95-11.33,2.54-22.62,5.26-33.87,8.14-4.8,1.23-3.72,8.48,1.16,8.55,33.3,.49,66.6,.28,99.89-.65,9.37-.26,18.73-.58,28.1-.95,2.35-.09,4.35-1.93,4.35-4.35,0-2.55-2-4.12-4.35-4.35-35.55-3.53-70.95-8.38-106.13-14.57-9.96-1.75-19.9-3.61-29.83-5.57l1.04,7.95c26.69-20.53,56.21-36.96,86.07-52.35,30.05-15.5,60.64-30,90.01-46.79,16.29-9.31,32.19-19.34,47.23-30.57l-5.27-6.83c-10.96,10.88-23.88,19.05-37.77,26.24s-29.08,13.5-43.77,19.91c-31.62,13.8-62.2,29.91-91.27,48.5-16.39,10.48-32.27,21.74-47.63,33.68-1.69,1.31-1.55,4.2-.34,5.71,1.45,1.82,3.57,2.02,5.61,1.12,33.85-14.93,67.43-30.46,100.72-46.62,32.99-16.02,65.69-32.63,98.07-49.85,18.26-9.71,36.41-19.61,54.46-29.7l-5.95-5.95c-.86,1.65-1.82,3.25-2.89,4.77-.25,.35-.5,.7-.76,1.04,.37-.49-.27,.34-.38,.47-.64,.78-1.3,1.54-1.99,2.27-1.29,1.38-2.67,2.69-4.1,3.93-1.66,1.43-2.4,2-4.04,3.17-6.52,4.64-13.72,8.24-21.01,11.49-8.06,3.59-16.78,7.04-25.44,10.51-9.28,3.72-18.6,7.36-27.94,10.93-18.9,7.23-37.9,14.17-56.97,20.93s-38.09,13.29-57.21,19.75-38.29,12.82-57.46,19.17c-2.41,.8-4.81,1.59-7.22,2.39l3.35,7.95c18.5-10.08,37.07-20.02,55.73-29.81s37.27-19.37,56.02-28.84,37.81-18.9,56.82-28.13c18.95-9.2,37.98-18.25,57.08-27.15,19.21-8.96,38.5-17.76,57.85-26.41,2.39-1.07,4.78-2.13,7.17-3.2,2.15-.96,2.65-4.08,1.56-5.95-1.29-2.21-3.8-2.52-5.95-1.56h0Z"/><path d="M174.92,187.65c18.02,.94,34.82,3.29,52.47,7.37l1.16-8.55c-16.65-1.11-33.36-.99-49.99,.35-2.26,.18-4.46,1.87-4.35,4.35s1.91,4.25,4.35,4.35c12.84,.52,25.68,1.03,38.51,1.55,2.28,.09,4.45-2.07,4.35-4.35-.11-2.44-1.91-4.25-4.35-4.35-12.84-.52-25.68-1.03-38.51-1.55v8.7c16.63-1.34,33.34-1.46,49.99-.35,2.16,.14,4-1.77,4.27-3.77s-1-4.28-3.12-4.77c-17.99-4.16-36.35-6.72-54.79-7.68-2.28-.12-4.45,2.09-4.35,4.35,.11,2.46,1.91,4.22,4.35,4.35h0Z"/></svg>